<?xml version="1.0" encoding="UTF-8" standalone="no"?>
<!DOCTYPE svg PUBLIC "-//W3C//DTD SVG 1.1//EN" "http://www.w3.org/Graphics/SVG/1.1/DTD/svg11.dtd">
<svg width="100%" height="100%" viewBox="0 0 26 27" version="1.1" xmlns="http://www.w3.org/2000/svg" xmlns:xlink="http://www.w3.org/1999/xlink" xml:space="preserve" xmlns:serif="http://www.serif.com/" style="fill-rule:evenodd;clip-rule:evenodd;stroke-linecap:round;stroke-linejoin:round;">
    <g transform="matrix(1,0,0,1,-697,-169)">
        <g id="q15" transform="matrix(1.3,0,0,1.3,-430.1,-64.4246)">
            <rect x="867" y="180" width="20" height="20" style="fill:none;"/>
            <clipPath id="_clip1">
                <rect x="867" y="180" width="20" height="20"/>
            </clipPath>
            <g clip-path="url(#_clip1)">
                <g transform="matrix(0.769231,0,0,0.769231,2360.85,-1350.77)">
                    <path d="M-1916,1996.5C-1916,1992.91 -1918.91,1990 -1922.5,1990L-1935.5,1990C-1939.09,1990 -1942,1992.91 -1942,1996.5L-1942,2009.5C-1942,2013.09 -1939.09,2016 -1935.5,2016L-1922.5,2016C-1918.91,2016 -1916,2013.09 -1916,2009.5L-1916,1996.5Z" style="fill:rgb(85,169,250);"/>
                </g>
                <g transform="matrix(1,0,0,1,-0.314819,0.169177)">
                    <g transform="matrix(0.166855,0,0,0.160443,809.358,167.707)">
                        <g>
                            <path id="Layer0_0_1_STROKES" d="M407.638,96.65C400.438,96.65 395.713,98.7 392.58,102.8C389.58,106.767 388.43,112.667 389.13,120.5C388.32,121.523 386.794,122.189 386.93,126.6C386.993,128.673 387.203,131.419 389.08,133.55C389.38,139.317 391.53,143.7 395.53,146.7L395.53,154.944C395.518,158.047 389.459,161.483 384.693,162.65C379.099,164.019 372.868,168.641 372.443,179.1L442.119,179.1C441.417,170.25 437.452,165.256 429.299,162.377C429.299,162.377 419.516,158.771 419.43,154.944L419.43,146.7C423.563,143.6 425.78,139.217 426.08,133.55C427.995,131.603 428.063,128.667 428.23,126.6C428.396,124.5 428.144,121.914 426.03,120.5C426.83,113.033 425.796,107.25 422.93,103.15C419.863,98.817 414.472,96.65 407.638,96.65Z" style="fill:none;stroke:white;stroke-width:5.64px;"/>
                        </g>
                    </g>
                    <g transform="matrix(0.36746,0,0,0.36746,348.103,154.126)">
                        <circle cx="1440.24" cy="106.421" r="2.467" style="fill:white;"/>
                        <path d="M1440.31,103.955L1440.37,103.957L1440.43,103.961L1440.5,103.967L1440.56,103.974L1440.62,103.983L1440.74,104.004L1440.86,104.032L1440.98,104.065L1441.09,104.104L1441.2,104.148L1441.31,104.198L1441.42,104.252L1441.52,104.311L1441.62,104.376L1441.72,104.444L1441.81,104.518L1441.9,104.595L1441.99,104.677L1442.07,104.763L1442.15,104.852L1442.22,104.945L1442.29,105.042L1442.35,105.142L1442.41,105.245L1442.47,105.352L1442.52,105.461L1442.56,105.573L1442.6,105.688L1442.63,105.805L1442.66,105.924L1442.68,106.045L1442.69,106.107L1442.7,106.169L1442.7,106.231L1442.71,106.294L1442.71,106.357L1442.71,106.421L1442.71,106.485L1442.71,106.548L1442.7,106.611L1442.7,106.673L1442.69,106.735L1442.68,106.796L1442.66,106.918L1442.63,107.037L1442.6,107.154L1442.56,107.269L1442.52,107.381L1442.47,107.49L1442.41,107.596L1442.35,107.7L1442.29,107.8L1442.22,107.896L1442.15,107.99L1442.07,108.079L1441.99,108.165L1441.9,108.247L1441.81,108.324L1441.72,108.397L1441.62,108.466L1441.52,108.53L1441.42,108.59L1441.31,108.644L1441.2,108.694L1441.09,108.738L1440.98,108.777L1440.86,108.81L1440.74,108.837L1440.62,108.859L1440.56,108.868L1440.5,108.875L1440.43,108.88L1440.37,108.884L1440.31,108.887L1440.24,108.888L1440.18,108.887L1440.12,108.884L1440.06,108.88L1439.99,108.875L1439.93,108.868L1439.87,108.859L1439.75,108.837L1439.63,108.81L1439.51,108.777L1439.4,108.738L1439.28,108.694L1439.17,108.644L1439.07,108.59L1438.96,108.53L1438.87,108.466L1438.77,108.397L1438.67,108.324L1438.59,108.247L1438.5,108.165L1438.42,108.079L1438.34,107.99L1438.27,107.896L1438.2,107.8L1438.13,107.7L1438.08,107.596L1438.02,107.49L1437.97,107.381L1437.93,107.269L1437.89,107.154L1437.86,107.037L1437.83,106.918L1437.81,106.796L1437.8,106.735L1437.79,106.673L1437.79,106.611L1437.78,106.548L1437.78,106.485L1437.78,106.421L1437.78,106.357L1437.78,106.294L1437.79,106.231L1437.79,106.169L1437.8,106.107L1437.81,106.045L1437.83,105.924L1437.86,105.805L1437.89,105.688L1437.93,105.573L1437.97,105.461L1438.02,105.352L1438.08,105.245L1438.13,105.142L1438.2,105.042L1438.27,104.945L1438.34,104.852L1438.42,104.763L1438.5,104.677L1438.59,104.595L1438.67,104.518L1438.77,104.444L1438.87,104.376L1438.96,104.311L1439.07,104.252L1439.17,104.198L1439.28,104.148L1439.4,104.104L1439.51,104.065L1439.63,104.032L1439.75,104.004L1439.87,103.983L1439.93,103.974L1439.99,103.967L1440.06,103.961L1440.12,103.957L1440.18,103.955L1440.24,103.954L1440.31,103.955ZM1440.22,105.629L1440.2,105.63L1440.18,105.631L1440.16,105.633L1440.14,105.635L1440.13,105.637L1440.08,105.645L1440.05,105.654L1440.01,105.665L1439.97,105.677L1439.94,105.691L1439.9,105.706L1439.87,105.724L1439.84,105.743L1439.8,105.763L1439.77,105.786L1439.74,105.81L1439.71,105.835L1439.68,105.861L1439.66,105.889L1439.63,105.919L1439.61,105.949L1439.59,105.98L1439.57,106.012L1439.55,106.046L1439.53,106.079L1439.51,106.114L1439.5,106.149L1439.49,106.185L1439.48,106.223L1439.47,106.261L1439.46,106.308L1439.46,106.318L1439.46,106.339L1439.45,106.358L1439.45,106.379L1439.45,106.4L1439.45,106.421L1439.45,106.442L1439.45,106.463L1439.45,106.484L1439.46,106.503L1439.46,106.524L1439.46,106.534L1439.47,106.581L1439.48,106.619L1439.49,106.656L1439.5,106.692L1439.51,106.728L1439.53,106.763L1439.55,106.796L1439.57,106.83L1439.59,106.862L1439.61,106.893L1439.63,106.923L1439.66,106.952L1439.68,106.98L1439.71,107.007L1439.74,107.032L1439.77,107.056L1439.8,107.078L1439.84,107.099L1439.87,107.118L1439.9,107.135L1439.94,107.151L1439.97,107.165L1440.01,107.177L1440.05,107.188L1440.08,107.196L1440.13,107.205L1440.14,107.206L1440.16,107.209L1440.18,107.21L1440.2,107.212L1440.22,107.213L1440.24,107.213L1440.27,107.213L1440.29,107.212L1440.31,107.21L1440.33,107.209L1440.35,107.206L1440.36,107.205L1440.4,107.196L1440.44,107.188L1440.48,107.177L1440.52,107.165L1440.55,107.151L1440.59,107.135L1440.62,107.118L1440.65,107.099L1440.68,107.078L1440.72,107.056L1440.75,107.032L1440.78,107.007L1440.8,106.98L1440.83,106.952L1440.86,106.924L1440.88,106.893L1440.9,106.861L1440.92,106.83L1440.94,106.797L1440.96,106.762L1440.97,106.728L1440.99,106.692L1441,106.656L1441.01,106.619L1441.02,106.582L1441.03,106.532L1441.03,106.524L1441.03,106.504L1441.03,106.482L1441.04,106.463L1441.04,106.442L1441.04,106.421L1441.04,106.4L1441.04,106.379L1441.03,106.36L1441.03,106.337L1441.03,106.318L1441.03,106.309L1441.02,106.26L1441.01,106.222L1441,106.186L1440.99,106.149L1440.97,106.114L1440.96,106.08L1440.94,106.045L1440.92,106.012L1440.9,105.98L1440.88,105.949L1440.86,105.918L1440.83,105.889L1440.8,105.862L1440.78,105.835L1440.75,105.809L1440.72,105.786L1440.68,105.764L1440.65,105.743L1440.62,105.724L1440.59,105.706L1440.55,105.691L1440.52,105.677L1440.48,105.665L1440.44,105.654L1440.4,105.645L1440.36,105.637L1440.35,105.635L1440.33,105.633L1440.31,105.631L1440.29,105.63L1440.27,105.629L1440.24,105.629L1440.22,105.629Z" style="fill:white;"/>
                    </g>
                    <g transform="matrix(0.36746,0,0,0.36746,348.373,154.914)">
                        <path d="M1438.47,105.686L1436.55,112.998L1439.82,112.944L1442.84,113.029L1440.61,105.643" style="fill:none;stroke:white;stroke-width:1.67px;stroke-miterlimit:1.5;"/>
                    </g>
                    <g transform="matrix(0.36746,0,0,0.36746,348.373,154.927)">
                        <path d="M1434.26,99.691L1444.5,99.718L1443.64,104.963C1443.64,104.963 1441.56,102.507 1439.56,102.551C1437.44,102.597 1435.63,105.359 1435.63,105.359L1434.26,99.691Z" style="fill:none;stroke:white;stroke-width:1.67px;stroke-miterlimit:1.5;"/>
                    </g>
                </g>
            </g>
        </g>
    </g>
</svg>
