<svg xmlns="http://www.w3.org/2000/svg" viewBox="0 0 59 59"><defs><style>.cls-1{fill:#9574e8;}.cls-2{fill:#fff;}</style></defs><title>network</title><g id="Layer_2" data-name="Layer 2"><g id="Layer_1-2" data-name="Layer 1"><rect class="cls-1" width="59" height="59" rx="16" ry="16"/><path class="cls-2" d="M40.5,34a7.48591,7.48591,0,0,0-5.75879,2.70276c-.02429-.01392-.04492-.03186-.07031-.04456L27.26,32.95276a8.45376,8.45376,0,0,0-.27429-7.47388L34.832,20.24805a1.48471,1.48471,0,0,0,.12781-.10511,6.54829,6.54829,0,1,0-1.58875-2.49865,1.48135,1.48135,0,0,0-.20312.10766l-8.06238,5.375a8.49595,8.49595,0,1,0,.44983,12.32813l7.76538,3.88257A7.49867,7.49867,0,1,0,40.5,34Zm-1-22A3.5,3.5,0,1,1,36,15.5,3.50424,3.50424,0,0,1,39.5,12Zm-20,23A5.5,5.5,0,1,1,25,29.5,5.50623,5.50623,0,0,1,19.5,35Zm21,11A4.5,4.5,0,1,1,45,41.5,4.50491,4.50491,0,0,1,40.5,46Z"/></g></g></svg>