<?xml version="1.0" encoding="UTF-8" standalone="no"?>
<!DOCTYPE svg PUBLIC "-//W3C//DTD SVG 1.1//EN" "http://www.w3.org/Graphics/SVG/1.1/DTD/svg11.dtd">
<svg width="100%" height="100%" viewBox="0 0 52 52" version="1.1" xmlns="http://www.w3.org/2000/svg" xmlns:xlink="http://www.w3.org/1999/xlink" xml:space="preserve" xmlns:serif="http://www.serif.com/" style="fill-rule:evenodd;clip-rule:evenodd;stroke-linejoin:round;stroke-miterlimit:1.41421;">
    <g transform="matrix(1,0,0,1,-1735,-68.9706)">
        <g id="_22" serif:id="22" transform="matrix(0.981095,0,0,0.981132,851.693,57.1971)">
            <rect x="900.328" y="12" width="53" height="53" style="fill:none;"/>
            <g transform="matrix(0.693151,0,0,0.693125,939.8,29.4794)">
                <path d="M0,30.585L-9.421,24.121C-10.757,23.227 -11.975,23.238 -13.074,24.153L-16.677,26.739C-17.216,27.073 -17.787,27.213 -18.39,27.159C-18.713,27.127 -19.306,26.971 -20.168,26.69C-22.279,26.033 -25.107,23.879 -28.652,20.227C-30.171,18.654 -31.507,17.124 -32.66,15.637C-33.845,14.064 -34.637,12.793 -35.035,11.823C-35.326,11.08 -35.488,10.493 -35.52,10.062C-35.563,9.469 -35.417,8.898 -35.083,8.349L-32.482,4.777C-31.577,3.668 -31.561,2.44 -32.434,1.093L-38.914,-8.344C-40.142,-9.712 -41.424,-10.003 -42.76,-9.217L-46.509,-6.955C-48.211,-5.856 -48.917,-3.625 -48.625,-0.264C-48.346,2.741 -47.344,6.129 -45.62,9.9C-43.174,15.266 -39.533,20.383 -34.696,25.252L-33.581,26.367C-28.711,31.205 -23.594,34.852 -18.229,37.308C-14.469,39.021 -11.075,40.017 -8.048,40.297C-4.697,40.588 -2.473,39.888 -1.374,38.197L0.873,34.431C1.67,33.106 1.379,31.824 0,30.585" style="fill:none;stroke:rgb(113,200,237);stroke-width:1.93px;"/>
            </g>
            <g transform="matrix(1,0,0,1,0.391782,-2.34086)">
                <g transform="matrix(1.01927,0,0,1.01923,-869.125,-57.9375)">
                    <path d="M1762,93C1767.47,87.258 1773.98,79.691 1782,87.201" style="fill:none;stroke:rgb(113,200,237);stroke-width:1.6px;stroke-linecap:round;stroke-miterlimit:1.5;"/>
                </g>
                <g transform="matrix(1.01927,0,0,1.01923,-868.104,-58.297)">
                    <path d="M1761,86.403L1761,93.353L1768,93.353" style="fill:none;stroke:rgb(113,200,237);stroke-width:1.6px;stroke-linecap:round;stroke-miterlimit:1.5;"/>
                </g>
            </g>
        </g>
    </g>
</svg>
