<svg xmlns="http://www.w3.org/2000/svg" viewBox="0 0 59 59"><defs><style>.cls-1{fill:#4ed85e;}.cls-2{fill:#fff;}</style></defs><title>billing</title><g id="Layer_2" data-name="Layer 2"><g id="Layer_1-2" data-name="Layer 1"><rect class="cls-1" width="59" height="59" rx="16" ry="16"/><path class="cls-2" d="M41,37c0-6.67334-5.3501-8.17285-9.64941-9.37793-.65674-.18408-1.31543-.36865-1.96-.57129C24.43359,25.49316,23,24.36035,23,22c0-2.59668.84814-5,7-5,5.62061,0,5.98438,4.16943,6,5.01416A2,2,0,0,0,40,22a8.92588,8.92588,0,0,0-8-8.8457V11a2,2,0,0,0-4,0v2.0979C20.63489,13.77515,19,18.217,19,22c0,5.97852,5.53125,7.7168,9.19141,8.86719.68359.21484,1.38281.41113,2.07959.60644C35.05273,32.814,37,33.689,37,37c0,3.43555-3.62842,5-7,5-3.93262,0-8-2.24414-8-6a2,2,0,0,0-4,0c0,5.551,4.7998,9.11475,10,9.85156V48a2,2,0,0,0,4,0V45.86182C37.31665,45.15564,41,41.65039,41,37Z"/></g></g></svg>