<?xml version="1.0" encoding="UTF-8" standalone="no"?>
<!DOCTYPE svg PUBLIC "-//W3C//DTD SVG 1.1//EN" "http://www.w3.org/Graphics/SVG/1.1/DTD/svg11.dtd">
<svg width="100%" height="100%" viewBox="0 0 26 27" version="1.1" xmlns="http://www.w3.org/2000/svg" xmlns:xlink="http://www.w3.org/1999/xlink" xml:space="preserve" xmlns:serif="http://www.serif.com/" style="fill-rule:evenodd;clip-rule:evenodd;stroke-linejoin:round;stroke-miterlimit:1.41421;">
    <g transform="matrix(1,0,0,1,-495,-168)">
        <g id="q16" transform="matrix(1.3,0,0,1.3,-632.1,-65.1771)">
            <rect x="867" y="180" width="20" height="20" style="fill:none;"/>
            <clipPath id="_clip1">
                <rect x="867" y="180" width="20" height="20"/>
            </clipPath>
            <g clip-path="url(#_clip1)">
                <g transform="matrix(0.769231,0,0,0.769231,2360.85,-1350.77)">
                    <path d="M-1916,1996.5C-1916,1992.91 -1918.91,1990 -1922.5,1990L-1935.5,1990C-1939.09,1990 -1942,1992.91 -1942,1996.5L-1942,2009.5C-1942,2013.09 -1939.09,2016 -1935.5,2016L-1922.5,2016C-1918.91,2016 -1916,2013.09 -1916,2009.5L-1916,1996.5Z" style="fill:rgb(253,114,83);"/>
                </g>
                <g transform="matrix(0.140694,0,0,0.142878,879.555,188.289)">
                    <path d="M0,30.585C-1.976,29.163 -8.908,24.018 -8.908,24.018C-10.244,23.124 -11.975,23.238 -13.074,24.153L-16.677,26.739C-17.216,27.073 -17.787,27.213 -18.39,27.159C-18.713,27.127 -19.306,26.971 -20.168,26.69C-22.279,26.033 -25.107,23.879 -28.652,20.227C-30.171,18.654 -31.507,17.124 -32.66,15.637C-33.845,14.064 -34.637,12.793 -35.035,11.823C-35.326,11.08 -35.488,10.493 -35.52,10.062C-35.563,9.469 -35.417,8.898 -35.083,8.349L-32.482,4.777C-31.577,3.668 -31.561,2.44 -32.434,1.093L-38.914,-8.344C-40.142,-9.712 -41.424,-10.003 -42.76,-9.217L-46.509,-6.955C-48.211,-5.856 -48.917,-3.625 -48.625,-0.264C-48.346,2.741 -47.344,6.129 -45.62,9.9C-43.174,15.266 -39.533,20.383 -34.696,25.252L-33.581,26.367C-28.711,31.205 -23.594,34.852 -18.229,37.308C-14.469,39.021 -11.075,40.017 -8.048,40.297C-4.697,40.588 -2.473,39.888 -1.374,38.197L0.873,34.431C1.67,33.106 1.142,31.407 0,30.585Z" style="fill:none;stroke:white;stroke-width:4.34px;"/>
                </g>
                <g transform="matrix(0.361131,0,0,0.361131,543.063,175.131)">
                    <g transform="matrix(0.804721,0,0,0.817211,-161.72,17.5729)">
                        <path d="M1366.35,42.758C1368.55,41.353 1370,38.894 1370,36.098L1370,16.135C1370,11.774 1366.46,8.233 1362.1,8.233L1340.9,8.233C1338.01,8.233 1335.47,9.793 1334.1,12.118" style="fill:none;stroke:white;stroke-width:1.58px;stroke-linecap:round;stroke-miterlimit:1.5;"/>
                    </g>
                    <g transform="matrix(0.804721,0,0,0.817211,-159.239,15.0329)">
                        <path d="M1366.35,42.758C1368.55,41.353 1370,38.894 1370,36.098L1370,16.135C1370,11.774 1366.46,8.233 1362.1,8.233L1340.9,8.233C1338.01,8.233 1335.47,9.793 1334.1,12.118" style="fill:none;stroke:white;stroke-width:1.58px;stroke-linecap:round;stroke-miterlimit:1.5;"/>
                    </g>
                    <g transform="matrix(0.804721,0,0,0.817211,-165.036,21.1687)">
                        <path d="M1370,16.135C1370,11.774 1366.4,8.233 1361.98,8.233L1341.03,8.233C1336.6,8.233 1333,11.774 1333,16.135L1333,36.098C1333,40.459 1336.6,44 1341.03,44L1361.98,44C1366.4,44 1370,40.459 1370,36.098L1370,16.135Z" style="fill:none;stroke:white;stroke-width:3.15px;stroke-linecap:round;stroke-miterlimit:1.5;"/>
                    </g>
                </g>
                <g transform="matrix(0.260925,0,0,0.264974,637.674,177.314)">
                    <g transform="matrix(1.01923,0,0,1.01923,-425.182,12.7312)">
                        <circle cx="1333.5" cy="18.5" r="12.5" style="fill:rgb(253,114,83);stroke:white;stroke-width:1.74px;stroke-linecap:round;stroke-miterlimit:1.5;"/>
                    </g>
                    <g transform="matrix(1.01923,0,0,1.01923,-426.262,12.7069)">
                        <path d="M1333.74,9.239L1333.74,19L1341,19" style="fill:none;stroke:white;stroke-width:1.46px;stroke-linecap:round;stroke-miterlimit:1.5;"/>
                    </g>
                </g>
            </g>
        </g>
    </g>
</svg>
