<?xml version="1.0" encoding="UTF-8" standalone="no"?>
<!DOCTYPE svg PUBLIC "-//W3C//DTD SVG 1.1//EN" "http://www.w3.org/Graphics/SVG/1.1/DTD/svg11.dtd">
<svg width="100%" height="100%" viewBox="0 0 27 27" version="1.1" xmlns="http://www.w3.org/2000/svg" xmlns:xlink="http://www.w3.org/1999/xlink" xml:space="preserve" xmlns:serif="http://www.serif.com/" style="fill-rule:evenodd;clip-rule:evenodd;stroke-linecap:round;stroke-linejoin:round;stroke-miterlimit:1.5;">
    <g transform="matrix(1,0,0,1,-542,-169)">
        <g id="q6" transform="matrix(1.3,0,0,1.3,-584.299,-64.4246)">
            <rect x="867" y="180" width="20" height="20" style="fill:none;"/>
            <clipPath id="_clip1">
                <rect x="867" y="180" width="20" height="20"/>
            </clipPath>
            <g clip-path="url(#_clip1)">
                <g transform="matrix(0.769231,0,0,0.769231,2360.85,-1350.77)">
                    <path d="M-1916,1996.5C-1916,1992.91 -1918.91,1990 -1922.5,1990L-1935.5,1990C-1939.09,1990 -1942,1992.91 -1942,1996.5L-1942,2009.5C-1942,2013.09 -1939.09,2016 -1935.5,2016L-1922.5,2016C-1918.91,2016 -1916,2013.09 -1916,2009.5L-1916,1996.5Z" style="fill:rgb(250,152,75);"/>
                </g>
                <g transform="matrix(0.725273,0,0,2.09792,854.594,-343.925)">
                    <g transform="matrix(0.673535,0,0,0.511357,9.11613,82.7671)">
                        <g transform="matrix(1,0,0,1,-7.94952,0)">
                            <g transform="matrix(1,0,0,0.479574,-5971.5,-977.454)">
                                <path d="M6003.36,2735.89L6003.36,2741.05" style="fill:none;stroke:white;stroke-width:1.53px;"/>
                            </g>
                            <g transform="matrix(-0.5,0.415323,-0.866025,-0.239787,5405.12,-1500.84)">
                                <path d="M6003.36,2735.89L6003.36,2741.05" style="fill:none;stroke:white;stroke-width:1.57px;"/>
                            </g>
                            <g transform="matrix(0.5,0.415323,-0.866025,0.239787,-598.238,-2814.14)">
                                <path d="M6003.36,2735.89L6003.36,2741.05" style="fill:none;stroke:white;stroke-width:1.5px;"/>
                            </g>
                        </g>
                        <g transform="matrix(1,0,0,1,-0.10455,0)">
                            <g transform="matrix(1,0,0,0.479574,-5971.5,-977.454)">
                                <path d="M6003.36,2735.89L6003.36,2741.05" style="fill:none;stroke:white;stroke-width:1.53px;"/>
                            </g>
                            <g transform="matrix(-0.5,0.415323,-0.866025,-0.239787,5405.12,-1500.84)">
                                <path d="M6003.36,2735.89L6003.36,2741.05" style="fill:none;stroke:white;stroke-width:1.57px;"/>
                            </g>
                            <g transform="matrix(0.5,0.415323,-0.866025,0.239787,-598.238,-2814.14)">
                                <path d="M6003.36,2735.89L6003.36,2741.05" style="fill:none;stroke:white;stroke-width:1.5px;"/>
                            </g>
                        </g>
                        <g transform="matrix(1,0,0,1,7.89545,0)">
                            <g transform="matrix(1,0,0,0.479574,-5971.5,-977.454)">
                                <path d="M6003.36,2735.89L6003.36,2741.05" style="fill:none;stroke:white;stroke-width:1.53px;"/>
                            </g>
                            <g transform="matrix(-0.5,0.415323,-0.866025,-0.239787,5405.12,-1500.84)">
                                <path d="M6003.36,2735.89L6003.36,2741.05" style="fill:none;stroke:white;stroke-width:1.57px;"/>
                            </g>
                            <g transform="matrix(0.5,0.415323,-0.866025,0.239787,-598.238,-2814.14)">
                                <path d="M6003.36,2735.89L6003.36,2741.05" style="fill:none;stroke:white;stroke-width:1.5px;"/>
                            </g>
                        </g>
                    </g>
                    <g transform="matrix(0.743465,0,0,0.184305,-4424.63,-257.097)">
                        <rect x="5989.89" y="2771" width="13" height="9.672" style="fill:white;stroke:white;stroke-width:1.64px;"/>
                    </g>
                    <g transform="matrix(0.909091,0,0,0.314282,-5426.38,-617.631)">
                        <path d="M6014,2770.41C6014,2769.63 6013.37,2769 6012.59,2769L5993.41,2769C5992.63,2769 5992,2769.63 5992,2770.41L5992,2779.59C5992,2780.37 5992.63,2781 5993.41,2781L6012.59,2781C6013.37,2781 6014,2780.37 6014,2779.59L6014,2770.41Z" style="fill:none;stroke:white;stroke-width:1.17px;"/>
                    </g>
                </g>
            </g>
        </g>
    </g>
</svg>
