<svg xmlns="http://www.w3.org/2000/svg" viewBox="0 0 59 59"><defs><style>.cls-1{fill:#fc3d70;}.cls-2{fill:#fff;}</style></defs><title>exit</title><g id="Layer_2" data-name="Layer 2"><g id="Layer_1-2" data-name="Layer 1"><rect class="cls-1" width="59" height="59" rx="16" ry="16"/><path class="cls-2" d="M15.76123,31H34.5a1.5,1.5,0,0,0,0-3H15.76123l3.87744-4.52393a1.49976,1.49976,0,0,0-2.27734-1.95214l-6,7a1.49861,1.49861,0,0,0,0,1.95214l6,7a1.49976,1.49976,0,0,0,2.27734-1.95214Z"/><path class="cls-2" d="M38.5,12h-13a1.5,1.5,0,0,0,0,3h13A3.50424,3.50424,0,0,1,42,18.5v22A3.50424,3.50424,0,0,1,38.5,44h-13a1.5,1.5,0,0,0,0,3h13A6.50753,6.50753,0,0,0,45,40.5v-22A6.50753,6.50753,0,0,0,38.5,12Z"/></g></g></svg>