<?xml version="1.0" encoding="UTF-8" standalone="no"?>
<!DOCTYPE svg PUBLIC "-//W3C//DTD SVG 1.1//EN" "http://www.w3.org/Graphics/SVG/1.1/DTD/svg11.dtd">
<svg width="100%" height="100%" viewBox="0 0 26 26" version="1.1" xmlns="http://www.w3.org/2000/svg" xmlns:xlink="http://www.w3.org/1999/xlink" xml:space="preserve" xmlns:serif="http://www.serif.com/" style="fill-rule:evenodd;clip-rule:evenodd;stroke-linecap:round;stroke-miterlimit:10;">
    <g transform="matrix(1,0,0,1,-338,-169)">
        <g id="q13" transform="matrix(1.3,0,0,1.3,-789.1,-65)">
            <rect x="867" y="180" width="20" height="20" style="fill:none;"/>
            <clipPath id="_clip1">
                <rect x="867" y="180" width="20" height="20"/>
            </clipPath>
            <g clip-path="url(#_clip1)">
                <g transform="matrix(0.769231,0,0,0.769231,2360.85,-1350.77)">
                    <path d="M-1916,1996.5C-1916,1992.91 -1918.91,1990 -1922.5,1990L-1935.5,1990C-1939.09,1990 -1942,1992.91 -1942,1996.5L-1942,2009.5C-1942,2013.09 -1939.09,2016 -1935.5,2016L-1922.5,2016C-1918.91,2016 -1916,2013.09 -1916,2009.5L-1916,1996.5Z" style="fill:rgb(160,212,104);"/>
                </g>
                <g transform="matrix(0.323887,0,0,0.33264,867.445,180.187)">
                    <g transform="matrix(0,1,1,0,31.5,12.5)">
                        <path d="M-1.5,-1.5L1.5,-1.5" style="fill:none;stroke:white;stroke-width:2.81px;"/>
                    </g>
                    <g transform="matrix(0,1,1,0,31.5,46.5)">
                        <path d="M-1.5,-1.5L1.5,-1.5" style="fill:none;stroke:white;stroke-width:2.81px;"/>
                    </g>
                    <g transform="matrix(1,0,0,1,38,37)">
                        <path d="M0,-15C0,-15 0,-22 -8,-22C-15,-22 -17,-19 -17,-15C-17,-11 -13.934,-9.526 -9.209,-8.041C-4.484,-6.556 1,-6 1,0C1,4.279 -3,7 -8,7C-13,7 -18,4 -18,-1" style="fill:none;stroke:white;stroke-width:2.81px;"/>
                    </g>
                </g>
            </g>
        </g>
    </g>
</svg>
