<?xml version="1.0" encoding="UTF-8" standalone="no"?>
<!DOCTYPE svg PUBLIC "-//W3C//DTD SVG 1.1//EN" "http://www.w3.org/Graphics/SVG/1.1/DTD/svg11.dtd">
<svg width="100%" height="100%" viewBox="0 0 26 26" version="1.1" xmlns="http://www.w3.org/2000/svg" xmlns:xlink="http://www.w3.org/1999/xlink" xml:space="preserve" xmlns:serif="http://www.serif.com/" style="fill-rule:evenodd;clip-rule:evenodd;stroke-linecap:round;stroke-linejoin:round;stroke-miterlimit:1.5;">
    <g transform="matrix(1,0,0,1,-308,-169)">
        <g id="q3" transform="matrix(1.3,0,0,1.3,-819.1,-65)">
            <rect x="867" y="180" width="20" height="20" style="fill:none;"/>
            <clipPath id="_clip1">
                <rect x="867" y="180" width="20" height="20"/>
            </clipPath>
            <g clip-path="url(#_clip1)">
                <g transform="matrix(0.769231,0,0,0.769231,2360.85,-1350.77)">
                    <path d="M-1916,1996.5C-1916,1992.91 -1918.91,1990 -1922.5,1990L-1935.5,1990C-1939.09,1990 -1942,1992.91 -1942,1996.5L-1942,2009.5C-1942,2013.09 -1939.09,2016 -1935.5,2016L-1922.5,2016C-1918.91,2016 -1916,2013.09 -1916,2009.5L-1916,1996.5Z" style="fill:rgb(255,174,66);"/>
                </g>
                <g transform="matrix(0.724285,0,0,0.639175,-965.381,-921.025)">
                    <g transform="matrix(1,0,0,1.09692,-3459.24,-925.923)">
                        <path d="M5993.4,2425.68L6012.27,2425.68" style="fill:none;stroke:white;stroke-width:1.3px;"/>
                    </g>
                    <g transform="matrix(1,0,0,1.09692,-3459.12,-920.389)">
                        <path d="M5993.4,2425.68L6012.27,2425.68" style="fill:none;stroke:white;stroke-width:1.3px;"/>
                    </g>
                    <g transform="matrix(1,0,0,1.09692,-3459.12,-926.557)">
                        <path d="M6012.4,2423.17C6012.4,2422.22 6011.66,2421.46 6010.75,2421.46L5994.94,2421.46C5994.03,2421.46 5993.29,2422.22 5993.29,2423.17L5993.29,2435.11C5993.29,2436.05 5994.03,2436.82 5994.94,2436.82L6010.75,2436.82C6011.66,2436.82 6012.4,2436.05 6012.4,2435.11L6012.4,2423.17Z" style="fill:none;stroke:white;stroke-width:1.3px;"/>
                    </g>
                    <g transform="matrix(1,0,0,1.09692,-3459.12,-926.557)">
                        <path d="M5997.86,2421.46L5997.86,2436.82" style="fill:none;stroke:white;stroke-width:1.3px;"/>
                    </g>
                </g>
            </g>
        </g>
    </g>
</svg>
