<?xml version="1.0" encoding="UTF-8" standalone="no"?>
<!DOCTYPE svg PUBLIC "-//W3C//DTD SVG 1.1//EN" "http://www.w3.org/Graphics/SVG/1.1/DTD/svg11.dtd">
<svg width="100%" height="100%" viewBox="0 0 26 26" version="1.1" xmlns="http://www.w3.org/2000/svg" xmlns:xlink="http://www.w3.org/1999/xlink" xml:space="preserve" xmlns:serif="http://www.serif.com/" style="fill-rule:evenodd;clip-rule:evenodd;stroke-linecap:round;stroke-linejoin:round;stroke-miterlimit:1.5;">
    <g transform="matrix(1,0,0,1,-666,-169)">
        <g id="q12" transform="matrix(1.3,0,0,1.3,-461.1,-65)">
            <rect x="867" y="180" width="20" height="20" style="fill:none;"/>
            <g transform="matrix(0.769231,0,0,0.769231,2360.85,-1350.77)">
                <path d="M-1916,1996.5C-1916,1992.91 -1918.91,1990 -1922.5,1990L-1935.5,1990C-1939.09,1990 -1942,1992.91 -1942,1996.5L-1942,2009.5C-1942,2013.09 -1939.09,2016 -1935.5,2016L-1922.5,2016C-1918.91,2016 -1916,2013.09 -1916,2009.5L-1916,1996.5Z" style="fill:rgb(160,212,104);"/>
            </g>
            <g transform="matrix(0.769231,0,0,0.769231,102.774,33.9626)">
                <g transform="matrix(0.789474,0,0,0.789474,-3695.31,-1762.26)">
                    <g transform="matrix(1.15385,0,0,1.06027,-916.25,-152.586)">
                        <path d="M5962.12,2498.59L5962.12,2482.41C5962.12,2482.18 5961.94,2482 5961.72,2482L5949.53,2482C5949.31,2482 5949.12,2482.18 5949.12,2482.41L5949.12,2499.79" style="fill:none;stroke:white;stroke-width:1.37px;"/>
                    </g>
                    <g transform="matrix(1,-0.0845062,0,1,-2.27374e-13,503.92)">
                        <g transform="matrix(1,0,0,1,-2.875,-2)">
                            <path d="M5951,2498.61C5951.06,2499.39 5951.71,2500 5952.5,2500C5953.33,2500 5954,2499.33 5954,2498.5C5954,2498.47 5954,2498.43 5954,2498.39C5954,2498.43 5954,2498.47 5954,2498.5C5954,2499.33 5953.33,2500 5952.5,2500C5951.71,2500 5951.06,2499.39 5951,2498.61Z" style="fill:none;stroke:white;stroke-width:1.59px;"/>
                        </g>
                        <g transform="matrix(1,0,0,1,0.121344,-2)">
                            <path d="M5951,2498.61C5951.06,2499.39 5951.71,2500 5952.5,2500C5953.33,2500 5954,2499.33 5954,2498.5C5954,2498.47 5954,2498.43 5954,2498.39C5954,2498.43 5954,2498.47 5954,2498.5C5954,2499.33 5953.33,2500 5952.5,2500C5951.71,2500 5951.06,2499.39 5951,2498.61Z" style="fill:none;stroke:white;stroke-width:1.59px;"/>
                        </g>
                        <g transform="matrix(1,0,0,1,3.12134,-2)">
                            <path d="M5951,2498.61C5951.06,2499.39 5951.71,2500 5952.5,2500C5953.33,2500 5954,2499.33 5954,2498.5C5954,2498.47 5954,2498.43 5954,2498.39C5954,2498.43 5954,2498.47 5954,2498.5C5954,2499.33 5953.33,2500 5952.5,2500C5951.71,2500 5951.06,2499.39 5951,2498.61Z" style="fill:none;stroke:white;stroke-width:1.59px;"/>
                        </g>
                        <g transform="matrix(1,0,0,1,6.11769,-2)">
                            <path d="M5951,2498.61C5951.06,2499.39 5951.71,2500 5952.5,2500C5953.33,2500 5954,2499.33 5954,2498.5C5954,2498.47 5954,2498.43 5954,2498.39C5954,2498.43 5954,2498.47 5954,2498.5C5954,2499.33 5953.33,2500 5952.5,2500C5951.71,2500 5951.06,2499.39 5951,2498.61Z" style="fill:none;stroke:white;stroke-width:1.59px;"/>
                        </g>
                        <g transform="matrix(1,0,0,1,9.11404,-2)">
                            <path d="M5951,2498.61C5951.06,2499.39 5951.71,2500 5952.5,2500C5953.33,2500 5954,2499.33 5954,2498.5C5954,2498.47 5954,2498.43 5954,2498.39C5954,2498.43 5954,2498.47 5954,2498.5C5954,2499.33 5953.33,2500 5952.5,2500C5951.71,2500 5951.06,2499.39 5951,2498.61Z" style="fill:none;stroke:white;stroke-width:1.59px;"/>
                        </g>
                    </g>
                </g>
                <g transform="matrix(0.231428,0,0,0.237683,999.667,194.789)">
                    <g transform="matrix(0,1,1,0,31.5,12.5)">
                        <path d="M-1.5,-1.5L1.5,-1.5" style="fill:none;stroke:white;stroke-width:4.17px;stroke-linejoin:miter;stroke-miterlimit:10;"/>
                    </g>
                    <g transform="matrix(0,1,1,0,31.5,46.5)">
                        <path d="M-1.5,-1.5L1.5,-1.5" style="fill:none;stroke:white;stroke-width:4.17px;stroke-linejoin:miter;stroke-miterlimit:10;"/>
                    </g>
                    <g transform="matrix(1,0,0,1,38,37)">
                        <path d="M0,-15C0,-15 0,-22 -8,-22C-15,-22 -17,-19 -17,-15C-17,-11 -13.934,-9.526 -9.209,-8.041C-4.484,-6.556 1,-6 1,0C1,4.279 -3,7 -8,7C-13,7 -18,4 -18,-1" style="fill:none;stroke:white;stroke-width:4.17px;stroke-linejoin:miter;stroke-miterlimit:10;"/>
                    </g>
                </g>
            </g>
        </g>
    </g>
</svg>
