<?xml version="1.0" encoding="UTF-8" standalone="no"?>
<!DOCTYPE svg PUBLIC "-//W3C//DTD SVG 1.1//EN" "http://www.w3.org/Graphics/SVG/1.1/DTD/svg11.dtd">
<svg width="100%" height="100%" viewBox="0 0 26 26" version="1.1" xmlns="http://www.w3.org/2000/svg" xmlns:xlink="http://www.w3.org/1999/xlink" xml:space="preserve" xmlns:serif="http://www.serif.com/" style="fill-rule:evenodd;clip-rule:evenodd;stroke-linecap:round;stroke-linejoin:round;stroke-miterlimit:1.5;">
    <g transform="matrix(1,0,0,1,-277,-169)">
        <g id="q14" transform="matrix(1.3,0,0,1.3,-850.1,-65)">
            <rect x="867" y="180" width="20" height="20" style="fill:none;"/>
            <clipPath id="_clip1">
                <rect x="867" y="180" width="20" height="20"/>
            </clipPath>
            <g clip-path="url(#_clip1)">
                <g transform="matrix(0.769231,0,0,0.769231,2360.85,-1350.77)">
                    <path d="M-1916,1996.5C-1916,1992.91 -1918.91,1990 -1922.5,1990L-1935.5,1990C-1939.09,1990 -1942,1992.91 -1942,1996.5L-1942,2009.5C-1942,2013.09 -1939.09,2016 -1935.5,2016L-1922.5,2016C-1918.91,2016 -1916,2013.09 -1916,2009.5L-1916,1996.5Z" style="fill:rgb(241,60,93);"/>
                </g>
                <g transform="matrix(0.674957,0,0,0.674957,-3174.93,-1419.41)">
                    <path d="M6003.31,2375.33C6003.31,2375.33 6004.38,2375.22 6004.34,2377.18C6007.19,2377.75 6008.45,2379.9 6008.72,2383.59C6008.84,2385.36 6009.37,2387.68 6010.15,2388.33C6011.26,2389.26 6011.03,2390.97 6009.62,2390.98C6007.74,2391 6003.09,2390.91 6003.09,2390.91" style="fill:none;stroke:white;stroke-width:1.37px;"/>
                    <g transform="matrix(-1,0,0,1,12006.5,-2.27374e-13)">
                        <path d="M6003.31,2375.33C6003.31,2375.33 6004.36,2375.32 6004.34,2377.18C6007.19,2377.75 6008.45,2379.9 6008.72,2383.59C6008.84,2385.36 6009.37,2387.68 6010.15,2388.33C6011.26,2389.26 6011.03,2390.97 6009.62,2390.98C6007.74,2391 6003.09,2390.91 6003.09,2390.91" style="fill:none;stroke:white;stroke-width:1.37px;"/>
                    </g>
                    <path d="M6000.63,2390.97C6000.63,2391 6000.63,2391.03 6000.63,2391.06C6000.63,2392.46 6001.77,2393.6 6003.17,2393.6C6004.53,2393.6 6005.64,2392.54 6005.71,2391.19C6005.64,2392.54 6004.53,2393.6 6003.17,2393.6C6001.77,2393.6 6000.63,2392.46 6000.63,2391.06C6000.63,2391.03 6000.63,2391 6000.63,2390.97Z" style="fill:none;stroke:white;stroke-width:1.37px;"/>
                </g>
            </g>
        </g>
    </g>
</svg>
