<?xml version="1.0" encoding="UTF-8" standalone="no"?><!DOCTYPE svg PUBLIC "-//W3C//DTD SVG 1.1//EN" "http://www.w3.org/Graphics/SVG/1.1/DTD/svg11.dtd"><svg width="100%" height="100%" viewBox="0 0 26 26" version="1.1" xmlns="http://www.w3.org/2000/svg" xmlns:xlink="http://www.w3.org/1999/xlink" xml:space="preserve" xmlns:serif="http://www.serif.com/" style="fill-rule:evenodd;clip-rule:evenodd;stroke-linecap:round;stroke-linejoin:round;stroke-miterlimit:1.5;"><rect id="pay" x="0" y="0" width="26" height="26" style="fill:none;"/><g><path d="M26,6.5c0,-3.587 -2.913,-6.5 -6.5,-6.5l-13,0c-3.587,0 -6.5,2.913 -6.5,6.5l0,13c0,3.587 2.913,6.5 6.5,6.5l13,0c3.587,0 6.5,-2.913 6.5,-6.5l0,-13Z" style="fill:#38d442;"/><g><path d="M20.072,7.9c0,0 0,8.88 0,10.192c0,1.311 -3.169,2.376 -7.072,2.376c-3.903,0 -7.072,-1.065 -7.072,-2.376c0,-1.312 0,-10.192 0,-10.192" style="fill:none;stroke:#fff;stroke-width:0.91px;"/><path d="M20.072,10.85c0,1.312 -3.169,2.376 -7.072,2.376c-3.903,0 -7.072,-1.064 -7.072,-2.376" style="fill:none;stroke:#fff;stroke-width:0.91px;"/><path d="M20.072,14.471c0,1.311 -3.169,2.376 -7.072,2.376c-3.903,0 -7.072,-1.065 -7.072,-2.376" style="fill:none;stroke:#fff;stroke-width:0.91px;"/><ellipse cx="13" cy="7.908" rx="7.072" ry="2.376" style="fill:none;stroke:#fff;stroke-width:0.91px;"/></g></g></svg>