<svg xmlns="http://www.w3.org/2000/svg" viewBox="0 0 59 59"><defs><style>.cls-1{fill:#32c0f9;}.cls-2{fill:#fff;}</style></defs><title>profile</title><g id="Layer_2" data-name="Layer 2"><g id="Layer_1-2" data-name="Layer 1"><rect class="cls-1" width="59" height="59" rx="16" ry="16"/><g id="kkkkkk_0_Layer0_0_1_STROKES" data-name="kkkkkk 0 Layer0 0 1 STROKES"><path class="cls-2" d="M43.06982,47H15.7583a2.42726,2.42726,0,0,1-2.30957-3.17334c.93066-2.87842,2.46436-5.82959,9.93457-7.51953l.06836-.01563V33.94238a8.81766,8.81766,0,0,1-2.13525-3.03174,11.88284,11.88284,0,0,1-.59571-3.16845,4.71866,4.71866,0,0,1-.979-2.86817,4.89677,4.89677,0,0,1,.83935-3.30127c-.09228-2.02441-.08544-2.668-.07128-2.97656a9.64755,9.64755,0,0,1,.48291-2.917c.875-2.39209,3.08154-5.22412,8.67138-5.17871L29.75049,10.5c5.52588,0,7.71435,2.79932,8.57666,5.15527a9.75129,9.75129,0,0,1,.49219,2.97608c.01318.27636.0205.91748-.07227,2.9414a4.889,4.889,0,0,1,.83936,3.29639,4.72594,4.72594,0,0,1-.979,2.873,11.89343,11.89343,0,0,1-.5874,3.14746,8.8419,8.8419,0,0,1-2.14356,3.05273v2.34326l.0962.02784c6.63769,1.63672,8.48339,4.47461,9.48925,7.29785A2.53886,2.53886,0,0,1,43.06982,47ZM16.56006,44h25.8374c-.75-1.773-2.1792-3.53613-7.07275-4.75635a2.81816,2.81816,0,0,1-2.44483-2.50146l-.00342-.10059V32.6875l.60206-.61182a6.31783,6.31783,0,0,0,1.74414-2.26953,10.52445,10.52445,0,0,0,.43213-2.852l.04492-.7539.63134-.41309a2.00062,2.00062,0,0,0,.26026-1.08887,1.78615,1.78615,0,0,0-.36328-1.45312l-.54248-.47754.03564-.72119c.10791-2.20362.11426-3.01612.1001-3.30957a6.86856,6.86856,0,0,0-.31983-2.07422C35.0083,15.31592,33.86523,13.5,29.75391,13.5c-.02881-.00049-.05616.001-.08594.00049h-.00781c-.02881,0-.05713-.001-.08594-.00049-4.11231,0-5.2544,1.81592-5.75586,3.18652a6.7679,6.7679,0,0,0-.31055,2.01514c-.01513.32861-.00879,1.14111.09912,3.34473l.03565.72119-.54248.47754a1.79237,1.79237,0,0,0-.36328,1.458A1.96985,1.96985,0,0,0,23,25.78955l.63184.41309.0415.75146a10.431,10.431,0,0,0,.44043,2.873,6.3158,6.3158,0,0,0,1.73584,2.24853l.60205.61182-.00342,4.05469a2.82052,2.82052,0,0,1-2.46191,2.50439C18.46973,40.50537,17.18408,42.35547,16.56006,44Z"/></g></g></g></svg>