<?xml version="1.0" encoding="UTF-8" standalone="no"?>
<!DOCTYPE svg PUBLIC "-//W3C//DTD SVG 1.1//EN" "http://www.w3.org/Graphics/SVG/1.1/DTD/svg11.dtd">
<svg width="100%" height="100%" viewBox="0 0 26 26" version="1.1" xmlns="http://www.w3.org/2000/svg" xmlns:xlink="http://www.w3.org/1999/xlink" xml:space="preserve" xmlns:serif="http://www.serif.com/" style="fill-rule:evenodd;clip-rule:evenodd;stroke-linecap:round;stroke-linejoin:round;stroke-miterlimit:1.5;">
    <g transform="matrix(1,0,0,1,-604,-169)">
        <g id="q8" transform="matrix(1.3,0,0,1.3,-523.1,-65)">
            <rect x="867" y="180" width="20" height="20" style="fill:none;"/>
            <clipPath id="_clip1">
                <rect x="867" y="180" width="20" height="20"/>
            </clipPath>
            <g clip-path="url(#_clip1)">
                <g transform="matrix(0.769231,0,0,0.769231,2360.85,-1350.77)">
                    <path d="M-1916,1996.5C-1916,1992.91 -1918.91,1990 -1922.5,1990L-1935.5,1990C-1939.09,1990 -1942,1992.91 -1942,1996.5L-1942,2009.5C-1942,2013.09 -1939.09,2016 -1935.5,2016L-1922.5,2016C-1918.91,2016 -1916,2013.09 -1916,2009.5L-1916,1996.5Z" style="fill:rgb(40,233,160);"/>
                </g>
                <g transform="matrix(0.769231,0,0,1.60399,853.026,-310.916)">
                    <g transform="matrix(1,0,0,0.639432,-5970,-1408.83)">
                        <path d="M5993,2693L5993,2696" style="fill:none;stroke:white;stroke-width:0.85px;"/>
                    </g>
                    <g transform="matrix(1,0,0,0.959147,-5964,-2270.78)">
                        <path d="M5993,2693L5993,2696" style="fill:none;stroke:white;stroke-width:0.63px;"/>
                    </g>
                    <g transform="matrix(1,0,0,0.79929,-5967,-1839.8)">
                        <path d="M5993,2693L5993,2696" style="fill:none;stroke:white;stroke-width:0.73px;"/>
                    </g>
                    <g transform="matrix(1,0,0,0.479574,-5961,-977.851)">
                        <path d="M5993,2692L5993,2696" style="fill:none;stroke:white;stroke-width:1px;"/>
                    </g>
                    <g transform="matrix(0.339233,0.313683,-0.943856,0.23476,531.677,-2205.23)">
                        <path d="M6011,2681L6013,2683L6009,2683L6011,2681Z" style="fill:white;stroke:white;stroke-width:1.09px;"/>
                    </g>
                    <g transform="matrix(1,0,0,0.479574,-5972,-977.851)">
                        <path d="M5994,2690L6001,2686L6004,2689L6011.26,2685.37L6012,2685" style="fill:none;stroke:white;stroke-width:1px;"/>
                    </g>
                    <g transform="matrix(1,0,0,0.639432,-5958,-1408.83)">
                        <path d="M5993,2692.25L5993,2696" style="fill:none;stroke:white;stroke-width:0.85px;"/>
                    </g>
                    <g transform="matrix(1,0,0,0.959147,-5955,-2270.78)">
                        <path d="M5993,2693L5993,2696" style="fill:none;stroke:white;stroke-width:0.63px;"/>
                    </g>
                </g>
            </g>
        </g>
    </g>
</svg>
