<?xml version="1.0" encoding="UTF-8" standalone="no"?><!DOCTYPE svg PUBLIC "-//W3C//DTD SVG 1.1//EN" "http://www.w3.org/Graphics/SVG/1.1/DTD/svg11.dtd"><svg width="100%" height="100%" viewBox="0 0 84 84" version="1.1" xmlns="http://www.w3.org/2000/svg" xmlns:xlink="http://www.w3.org/1999/xlink" xml:space="preserve" xmlns:serif="http://www.serif.com/" style="fill-rule:evenodd;clip-rule:evenodd;stroke-linecap:round;stroke-linejoin:round;stroke-miterlimit:1.5;"><rect id="_3" serif:id="3" x="0" y="0" width="84" height="84" style="fill:#4AA05B;"/><g><path d="M56.689,26.624c1.14,1.141 1.122,3.011 -0.042,4.175c-1.164,1.164 -3.035,1.183 -4.175,0.042c-1.141,-1.14 -1.122,-3.011 0.042,-4.175c1.164,-1.163 3.034,-1.182 4.175,-0.042Z" style="fill:#4AA05B;stroke:#fff;stroke-width:1.5px;"/><path d="M60.542,19.465c-3.207,0.572 -7.998,1.21 -12.102,1.831c-2.641,0.399 -4.224,0.619 -6.824,3.219c-1.853,1.853 -20.354,20.354 -20.354,20.354c0,0 -4.408,4.11 0,8.518c4.409,4.409 9.251,9.251 9.251,9.251c0,0 4.035,4.483 8.518,0c4.483,-4.483 15.542,-15.542 20.354,-20.354c1.447,-1.447 2.239,-3.337 2.944,-7.099c0.646,-3.443 1.149,-5.942 2.26,-11.673c0.563,-2.902 -1.115,-4.57 -4.047,-4.047Z" style="fill:none;stroke:#fff;stroke-width:2px;"/></g></svg>