<?xml version="1.0" encoding="UTF-8" standalone="no"?>
<!DOCTYPE svg PUBLIC "-//W3C//DTD SVG 1.1//EN" "http://www.w3.org/Graphics/SVG/1.1/DTD/svg11.dtd">
<svg width="100%" height="100%" viewBox="0 0 26 26" version="1.1" xmlns="http://www.w3.org/2000/svg" xmlns:xlink="http://www.w3.org/1999/xlink" xml:space="preserve" xmlns:serif="http://www.serif.com/" style="fill-rule:evenodd;clip-rule:evenodd;stroke-linecap:round;stroke-linejoin:round;stroke-miterlimit:1.5;">
    <g transform="matrix(1,0,0,1,-462,-169)">
        <g id="q5" transform="matrix(1.3,0,0,1.3,-665.1,-65)">
            <rect x="867" y="180" width="20" height="20" style="fill:none;"/>
            <g transform="matrix(0.769231,0,0,0.769231,2360.85,-1350.77)">
                <path d="M-1916,1996.5C-1916,1992.91 -1918.91,1990 -1922.5,1990L-1935.5,1990C-1939.09,1990 -1942,1992.91 -1942,1996.5L-1942,2009.5C-1942,2013.09 -1939.09,2016 -1935.5,2016L-1922.5,2016C-1918.91,2016 -1916,2013.09 -1916,2009.5L-1916,1996.5Z" style="fill:rgb(255,174,66);"/>
            </g>
            <g transform="matrix(0.769231,0,0,0.769231,-3740.63,-1978.77)">
                <path d="M6004.02,2811.07C6003.29,2810.98 6002.54,2810.98 6001.8,2811.07L6001.45,2812.31C6000.74,2812.46 6000.05,2812.71 5999.41,2813.05L5998.35,2812.33C5997.72,2812.73 5997.15,2813.21 5996.65,2813.76L5997.17,2814.93C5996.72,2815.5 5996.35,2816.14 5996.09,2816.81L5994.81,2816.94C5994.58,2817.65 5994.45,2818.39 5994.42,2819.13L5995.58,2819.69C5995.6,2820.42 5995.73,2821.14 5995.96,2821.83L5995.06,2822.75C5995.35,2823.44 5995.72,2824.09 5996.17,2824.67L5997.42,2824.36C5997.9,2824.91 5998.46,2825.38 5999.08,2825.76L5998.99,2827.04C5999.65,2827.38 6000.35,2827.64 6001.07,2827.8L6001.83,2826.76C6002.55,2826.86 6003.28,2826.86 6004,2826.76L6004.75,2827.8C6005.48,2827.64 6006.18,2827.38 6006.84,2827.04L6006.75,2825.76C6007.37,2825.38 6007.93,2824.91 6008.41,2824.36L6009.66,2824.67C6010.11,2824.09 6010.48,2823.44 6010.77,2822.75L6009.87,2821.83C6010.1,2821.14 6010.23,2820.42 6010.25,2819.69L6011.41,2819.13C6011.37,2818.39 6011.24,2817.65 6011.02,2816.94L6009.74,2816.81C6009.47,2816.14 6009.11,2815.5 6008.66,2814.93L6009.18,2813.76C6008.68,2813.21 6008.11,2812.73 6007.48,2812.33L6006.41,2813.05C6005.78,2812.71 6005.09,2812.46 6004.38,2812.31L6004.02,2811.07ZM6002.91,2815.28C6005.25,2815.28 6007.14,2817.17 6007.14,2819.5C6007.14,2821.83 6005.25,2823.72 6002.91,2823.72C6000.58,2823.72 5998.69,2821.83 5998.69,2819.5C5998.69,2817.17 6000.58,2815.28 6002.91,2815.28Z" style="fill:none;stroke:white;stroke-width:1.2px;"/>
            </g>
        </g>
    </g>
</svg>
