<?xml version="1.0" encoding="UTF-8" standalone="no"?><!DOCTYPE svg PUBLIC "-//W3C//DTD SVG 1.1//EN" "http://www.w3.org/Graphics/SVG/1.1/DTD/svg11.dtd"><svg width="100%" height="100%" viewBox="0 0 84 84" version="1.1" xmlns="http://www.w3.org/2000/svg" xmlns:xlink="http://www.w3.org/1999/xlink" xml:space="preserve" xmlns:serif="http://www.serif.com/" style="fill-rule:evenodd;clip-rule:evenodd;stroke-linecap:round;stroke-linejoin:round;stroke-miterlimit:1.5;"><rect id="_4" serif:id="4" x="0" y="0" width="84" height="84" style="fill:#4AA05B;"/><g><path d="M64.743,45.965l0,-5.028c0,-3.06 -2.484,-5.544 -5.544,-5.544l-39.09,0c-3.06,0 -5.544,2.484 -5.544,5.544l0,25.449c0,3.06 2.484,5.545 5.544,5.545l39.09,0c3.06,0 5.544,-2.485 5.544,-5.545l0,-8.148" style="fill:#4AA05B;stroke:#fff;stroke-width:1.5px;"/><path d="M64.2,38.407l5.235,-1.916l-6.807,-18.605l-40.413,14.785l1.022,2.691" style="fill:none;stroke:#fff;stroke-width:1.5px;"/><path d="M55.591,19.993l-3.512,-7.924l-35.289,17.818l2.241,5.3" style="fill:none;stroke:#fff;stroke-width:1.5px;"/><path d="M67.683,46.484l-14.218,0c-3.114,0 -5.643,2.529 -5.643,5.643c0,3.115 2.529,5.643 5.643,5.643l14.218,0l0,-11.286Z" style="fill:none;stroke:#fff;stroke-width:1.5px;"/></g></svg>