<?xml version="1.0" encoding="UTF-8" standalone="no"?>
<!DOCTYPE svg PUBLIC "-//W3C//DTD SVG 1.1//EN" "http://www.w3.org/Graphics/SVG/1.1/DTD/svg11.dtd">
<svg width="100%" height="100%" viewBox="0 0 26 26" version="1.1" xmlns="http://www.w3.org/2000/svg" xmlns:xlink="http://www.w3.org/1999/xlink" xml:space="preserve" xmlns:serif="http://www.serif.com/" style="fill-rule:evenodd;clip-rule:evenodd;stroke-linejoin:round;stroke-miterlimit:10;">
    <g transform="matrix(1,0,0,1,-398,-169)">
        <g id="q10" transform="matrix(1.3,0,0,1.3,-729.1,-65)">
            <rect x="867" y="180" width="20" height="20" style="fill:none;"/>
            <g transform="matrix(0.769231,0,0,0.769231,2360.85,-1350.77)">
                <path d="M-1916,1996.5C-1916,1992.91 -1918.91,1990 -1922.5,1990L-1935.5,1990C-1939.09,1990 -1942,1992.91 -1942,1996.5L-1942,2009.5C-1942,2013.09 -1939.09,2016 -1935.5,2016L-1922.5,2016C-1918.91,2016 -1916,2013.09 -1916,2009.5L-1916,1996.5Z" style="fill:rgb(252,99,127);"/>
            </g>
            <g transform="matrix(0.338983,0,0,0.338983,866.746,179.985)">
                <g transform="matrix(0.957265,0,0,0.957265,30.25,12.3144)">
                    <path d="M0,36C-9.941,36 -18,27.941 -18,18C-18,8.059 -9.941,0 0,0C9.941,0 18,8.059 18,18" style="fill:none;stroke:white;stroke-width:2.72px;"/>
                </g>
                <g transform="matrix(0.883629,0,0,0.883629,47.4808,42.3578)">
                    <path d="M0,-14.5L-19.5,5C-19.5,5 -24,-5 -17,-12C-9,-20 0,-14.5 0,-14.5Z" style="fill:white;fill-rule:nonzero;stroke:white;stroke-width:3.08px;stroke-miterlimit:1.41421;"/>
                </g>
            </g>
        </g>
    </g>
</svg>
