<?xml version="1.0" encoding="UTF-8" standalone="no"?>
<!DOCTYPE svg PUBLIC "-//W3C//DTD SVG 1.1//EN" "http://www.w3.org/Graphics/SVG/1.1/DTD/svg11.dtd">
<svg width="100%" height="100%" viewBox="0 0 26 26" version="1.1" xmlns="http://www.w3.org/2000/svg" xmlns:xlink="http://www.w3.org/1999/xlink" xml:space="preserve" xmlns:serif="http://www.serif.com/" style="fill-rule:evenodd;clip-rule:evenodd;stroke-linecap:round;stroke-linejoin:round;stroke-miterlimit:1.5;">
    <g transform="matrix(1,0,0,1,-428.834,-169)">
        <g id="q17" transform="matrix(1.3,0,0,1.3,-698.266,-65)">
            <rect x="867" y="180" width="20" height="20" style="fill:none;"/>
            <clipPath id="_clip1">
                <rect x="867" y="180" width="20" height="20"/>
            </clipPath>
            <g clip-path="url(#_clip1)">
                <g transform="matrix(0.769231,0,0,0.769231,2360.85,-1350.77)">
                    <path d="M-1916,1996.5C-1916,1992.91 -1918.91,1990 -1922.5,1990L-1935.5,1990C-1939.09,1990 -1942,1992.91 -1942,1996.5L-1942,2009.5C-1942,2013.09 -1939.09,2016 -1935.5,2016L-1922.5,2016C-1918.91,2016 -1916,2013.09 -1916,2009.5L-1916,1996.5Z" style="fill:rgb(24,200,61);"/>
                </g>
                <g transform="matrix(0.432967,0,0,0.432967,476.293,173.21)">
                    <g transform="matrix(0.784978,0,0,0.761618,-72.0124,17.796)">
                        <g>
                            <path d="M1276.22,11.01L1257.75,11.01C1253.68,11.01 1250.37,14.418 1250.37,18.615L1250.37,33.824C1250.37,38.021 1253.68,41.428 1257.75,41.428L1258.24,41.428L1258.16,48.048L1267.01,41.428L1281.94,41.428C1286.02,41.428 1289.32,38.021 1289.32,33.824L1289.32,28.886" style="fill:none;stroke:white;stroke-width:2.76px;"/>
                        </g>
                    </g>
                    <g transform="matrix(1.01923,0,0,1.01923,-511.52,12.9758)">
                        <path d="M1420.18,10.076C1419.33,9.975 1418.47,9.975 1417.62,10.076L1417.31,12.211C1416.54,12.353 1415.79,12.597 1415.08,12.938L1413.57,11.389C1412.83,11.808 1412.13,12.314 1411.5,12.895L1412.51,14.803C1411.96,15.372 1411.5,16.012 1411.13,16.705L1409,16.335C1408.64,17.113 1408.38,17.931 1408.21,18.771L1410.15,19.722C1410.04,20.502 1410.04,21.293 1410.15,22.073L1408.21,23.023C1408.38,23.864 1408.64,24.682 1409,25.46L1411.13,25.09C1411.5,25.783 1411.96,26.423 1412.51,26.992L1411.5,28.9C1412.13,29.481 1412.83,29.987 1413.57,30.405L1415.08,28.857C1415.79,29.198 1416.54,29.442 1417.31,29.583L1417.62,31.719C1418.47,31.82 1419.33,31.82 1420.18,31.719L1420.48,29.583C1421.26,29.442 1422.01,29.198 1422.72,28.857L1424.22,30.405C1424.97,29.987 1425.66,29.481 1426.3,28.9L1425.29,26.992C1425.83,26.423 1426.29,25.783 1426.67,25.09L1428.79,25.46C1429.15,24.682 1429.42,23.864 1429.59,23.023L1427.65,22.073C1427.75,21.293 1427.75,20.502 1427.65,19.722L1429.59,18.771C1429.42,17.931 1429.15,17.113 1428.79,16.335L1426.67,16.705C1426.29,16.012 1425.83,15.372 1425.29,14.803L1426.3,12.895C1425.66,12.314 1424.97,11.808 1424.22,11.389L1422.72,12.938C1422.01,12.597 1421.26,12.353 1420.48,12.211L1420.18,10.076ZM1418.9,16.168C1421.51,16.168 1423.63,18.287 1423.63,20.897C1423.63,23.507 1421.51,25.626 1418.9,25.626C1416.29,25.626 1414.17,23.507 1414.17,20.897C1414.17,18.287 1416.29,16.168 1418.9,16.168Z" style="fill:rgb(24,200,61);stroke:white;stroke-width:1.39px;"/>
                    </g>
                </g>
            </g>
        </g>
    </g>
</svg>
