<?xml version="1.0" encoding="UTF-8" standalone="no"?>
<!DOCTYPE svg PUBLIC "-//W3C//DTD SVG 1.1//EN" "http://www.w3.org/Graphics/SVG/1.1/DTD/svg11.dtd">
<svg width="100%" height="100%" viewBox="0 0 52 53" version="1.1" xmlns="http://www.w3.org/2000/svg" xmlns:xlink="http://www.w3.org/1999/xlink" xml:space="preserve" xmlns:serif="http://www.serif.com/" style="fill-rule:evenodd;clip-rule:evenodd;stroke-linecap:round;stroke-linejoin:round;stroke-miterlimit:1.5;">
    <g transform="matrix(1,0,0,1,-1539,-69)">
        <g id="_19" serif:id="19" transform="matrix(0.981095,0,0,0.981132,655.693,57.2406)">
            <rect x="900.328" y="12" width="53" height="53" style="fill:none;"/>
            <g transform="matrix(2.46368,0,0,2.49059,-1233.82,-434.41)">
                <g transform="matrix(1,0,0,1,0.92066,-3.55271e-15)">
                    <g transform="matrix(0.722182,0,0,0.769231,320.351,17.7071)">
                        <path d="M759.844,219.979L776.923,219.979" style="fill:none;stroke:rgb(99,159,235);stroke-width:0.88px;"/>
                    </g>
                    <g transform="matrix(1.01299,0,0,0.769231,99.3781,17.7071)">
                        <path d="M763,216.823L759.844,219.979L763,223.134" style="fill:none;stroke:rgb(99,159,235);stroke-width:0.73px;"/>
                    </g>
                </g>
                <g transform="matrix(-1,0,0,1,1753.08,5.9144)">
                    <g transform="matrix(0.646713,0,0,0.646713,377.695,44.6584)">
                        <path d="M759.844,219.979L778,219.979" style="fill:none;stroke:rgb(99,159,235);stroke-width:1.02px;"/>
                    </g>
                    <g transform="matrix(1.01299,0,0,0.769231,99.3781,17.7071)">
                        <path d="M763,216.823L759.844,219.979L763,223.134" style="fill:none;stroke:rgb(99,159,235);stroke-width:0.73px;"/>
                    </g>
                </g>
            </g>
        </g>
    </g>
</svg>
