<?xml version="1.0" encoding="UTF-8" standalone="no"?>
<!DOCTYPE svg PUBLIC "-//W3C//DTD SVG 1.1//EN" "http://www.w3.org/Graphics/SVG/1.1/DTD/svg11.dtd">
<svg width="100%" height="100%" viewBox="0 0 26 26" version="1.1" xmlns="http://www.w3.org/2000/svg" xmlns:xlink="http://www.w3.org/1999/xlink" xml:space="preserve" xmlns:serif="http://www.serif.com/" style="fill-rule:evenodd;clip-rule:evenodd;stroke-linecap:round;stroke-linejoin:round;">
    <g transform="matrix(1,0,0,1,-216,-169)">
        <g id="q4" transform="matrix(1.3,0,0,1.3,-911.1,-65)">
            <rect x="867" y="180" width="20" height="20" style="fill:none;"/>
            <clipPath id="_clip1">
                <rect x="867" y="180" width="20" height="20"/>
            </clipPath>
            <g clip-path="url(#_clip1)">
                <g transform="matrix(0.769231,0,0,0.769231,2360.85,-1350.77)">
                    <path d="M-1916,1996.5C-1916,1992.91 -1918.91,1990 -1922.5,1990L-1935.5,1990C-1939.09,1990 -1942,1992.91 -1942,1996.5L-1942,2009.5C-1942,2013.09 -1939.09,2016 -1935.5,2016L-1922.5,2016C-1918.91,2016 -1916,2013.09 -1916,2009.5L-1916,1996.5Z" style="fill:rgb(110,104,249);"/>
                </g>
                <g transform="matrix(0.250729,0,0,0.954868,843.193,-12.2777)">
                    <g id="Layer0_0_1_STROKES" transform="matrix(0.498986,0,0,0.125989,-78.1849,194.325)">
                        <path d="M407.638,96.65C400.438,96.65 395.713,98.7 392.58,102.8C389.58,106.767 388.43,112.667 389.13,120.5C388.23,120.633 387.613,121.133 387.28,122C386.88,122.967 386.763,124.5 386.93,126.6C387.096,128.667 387.33,130.2 387.63,131.2C387.93,132.267 388.413,133.05 389.08,133.55C389.38,139.317 391.53,143.7 395.53,146.7L395.53,154.944C395.518,158.047 386.596,161.483 381.83,162.65C377.196,164.017 373.88,166.45 371.88,169.95C370.446,172.45 369.68,175.5 369.58,179.1L442.119,179.1C442.237,170.369 438.424,164.118 428.776,161.389C428.776,161.389 419.516,158.771 419.43,154.944L419.43,146.7C423.563,143.6 425.78,139.217 426.08,133.55C426.746,133.05 427.23,132.267 427.53,131.2C427.83,130.2 428.063,128.667 428.23,126.6C428.396,124.5 428.28,122.967 427.88,122C427.546,121.133 426.93,120.633 426.03,120.5C426.83,113.033 425.796,107.25 422.93,103.15C419.863,98.817 414.472,96.65 407.638,96.65Z" style="fill:none;stroke:white;stroke-width:5.78px;"/>
                    </g>
                    <g id="Layer0_0_1_STROKES1" serif:id="Layer0_0_1_STROKES" transform="matrix(0.489214,0,0,0.123522,-72.3966,194.734)">
                        <path d="M444.652,162.113C445.814,160.4 445.128,155.181 445.128,155.181C439.262,154.914 434.468,152.717 432.234,150.317C432.281,150.254 432.326,150.19 432.372,150.127C436.93,143.73 436.867,134.244 436.929,123.37C436.995,111.537 441.781,104.016 453.19,104.083C464.392,104.148 469.353,111.503 469.38,123.37C469.409,135.784 470.142,143.343 474.115,150.317C471.915,152.717 467.165,154.914 461.265,155.181L461.265,159.982C461.351,165.182 468.54,165.764 471.79,166.628C476.609,167.91 481.519,170.428 482.078,179.2L450.426,179.2" style="fill:none;stroke:white;stroke-width:6.3px;"/>
                    </g>
                </g>
            </g>
        </g>
    </g>
</svg>
