<?xml version="1.0" encoding="UTF-8" standalone="no"?>
<!DOCTYPE svg PUBLIC "-//W3C//DTD SVG 1.1//EN" "http://www.w3.org/Graphics/SVG/1.1/DTD/svg11.dtd">
<svg width="100%" height="100%" viewBox="0 0 26 26" version="1.1" xmlns="http://www.w3.org/2000/svg" xmlns:xlink="http://www.w3.org/1999/xlink" xml:space="preserve" xmlns:serif="http://www.serif.com/" style="fill-rule:evenodd;clip-rule:evenodd;stroke-linecap:round;stroke-linejoin:round;stroke-miterlimit:1.5;">
    <g transform="matrix(1,0,0,1,-368,-169)">
        <g id="q11" transform="matrix(1.3,0,0,1.3,-759.1,-65)">
            <rect x="867" y="180" width="20" height="20" style="fill:none;"/>
            <clipPath id="_clip1">
                <rect x="867" y="180" width="20" height="20"/>
            </clipPath>
            <g clip-path="url(#_clip1)">
                <g transform="matrix(0.769231,0,0,0.769231,2360.85,-1350.77)">
                    <path d="M-1916,1996.5C-1916,1992.91 -1918.91,1990 -1922.5,1990L-1935.5,1990C-1939.09,1990 -1942,1992.91 -1942,1996.5L-1942,2009.5C-1942,2013.09 -1939.09,2016 -1935.5,2016L-1922.5,2016C-1918.91,2016 -1916,2013.09 -1916,2009.5L-1916,1996.5Z" style="fill:rgb(145,70,225);"/>
                </g>
                <g transform="matrix(0.691303,0,0,0.630224,-881.711,-1023.91)">
                    <g transform="matrix(1,0,0,1.09692,-3462.12,-928.751)">
                        <circle cx="6008.35" cy="2603.65" r="3.348" style="fill:white;stroke:white;stroke-width:1.34px;"/>
                    </g>
                    <g transform="matrix(1,0,0,1.09692,-3459.12,-926.557)">
                        <path d="M5995.73,2607.42L6005.35,2601.65L6011.37,2608.35" style="fill:none;stroke:white;stroke-width:1.34px;"/>
                    </g>
                    <g transform="matrix(0.850676,0,0,0.93312,-2572.13,-510.51)">
                        <circle cx="6008.35" cy="2603.65" r="3.348" style="fill:white;stroke:white;stroke-width:1.57px;"/>
                    </g>
                    <g transform="matrix(0.723986,0,0,0.794152,-1813.35,-134.127)">
                        <circle cx="6008.35" cy="2603.65" r="3.348" style="fill:white;stroke:white;stroke-width:1.84px;"/>
                    </g>
                    <g transform="matrix(0.5,0,0,0.548458,-451.924,506.589)">
                        <circle cx="6008.35" cy="2603.65" r="3.348" style="fill:white;stroke:white;stroke-width:2.67px;"/>
                    </g>
                    <g transform="matrix(0.5,0,0,0.548458,-457.924,489.728)">
                        <circle cx="6008.35" cy="2603.65" r="3.348" style="fill:white;stroke:white;stroke-width:2.67px;"/>
                    </g>
                    <g transform="matrix(1,0,0,1.09692,-3459.12,-926.557)">
                        <path d="M6005.35,2592.98L6005.35,2601.3L5998.15,2594.65" style="fill:none;stroke:white;stroke-width:1.34px;"/>
                    </g>
                </g>
            </g>
        </g>
    </g>
</svg>
