<?xml version="1.0" encoding="utf-8"?>
<!-- Generator: Adobe Illustrator 22.0.0, SVG Export Plug-In . SVG Version: 6.00 Build 0)  -->
<svg version="1.1" id="Layer_1" xmlns="http://www.w3.org/2000/svg" xmlns:xlink="http://www.w3.org/1999/xlink" x="0px" y="0px"
	 viewBox="0 0 108.7 100" style="enable-background:new 0 0 108.7 100;" xml:space="preserve">
<style type="text/css">
	.st0{fill:#FFFFFF;}
</style>
<path class="st0" d="M87.9,80.1c0-7.7-13.4-14.3-21.5-17.5c-0.4-0.2-0.7-0.5-0.7-1v-3.9c3.2-3.1,5.6-7.6,6.4-12.6
	c1.7-1.4,2.8-3.8,3.1-6.6c0.3-3.1-0.8-4.7-2-5.4c1.9-10.8-3.8-17.4-9.5-19.9c-5.6-2.5-11.8-1.4-15,2.5c-3,0.2-5.3,1.2-6.9,3.1
	c-3,3.6-2.5,9.4-1.9,14c-1.4,0.8-2.6,2.5-2.3,5.7c0.2,2.8,1.4,5.2,3.1,6.6c0.8,5,3.2,9.5,6.4,12.6v3.9c0,0.4-0.3,0.8-0.7,1
	c-8,3.2-21.5,9.8-21.5,17.5c0,7.6,20.8,10.5,30.5,10.8v0c0.3,0,0.6,0,1,0c0.4,0,0.7,0,1,0v0C67.1,90.6,87.9,87.7,87.9,80.1z
	 M56.5,78.7l1.7,9.2c-0.6,0-1.1,0-1.7,0c-0.6,0-1.2,0-1.7,0L56.5,78.7z M56.7,74.2h-0.6l-2.5-2.9l2.8-2.1l2.8,2.1L56.7,74.2z
	 M50.5,69.9C50.5,69.9,50.5,69.9,50.5,69.9l-2,1.5l-2-5.5c0.4-0.1,0.7-0.3,1.1-0.4c0.2-0.1,0.3-0.2,0.5-0.3l5,2.8l-2.4,1.8
	C50.7,69.7,50.6,69.8,50.5,69.9z M59.8,67.9l5.1-2.7c0.2,0.1,0.3,0.2,0.5,0.2c0.4,0.1,0.7,0.3,1.1,0.4l-2,5.5L59.8,67.9z M43.7,44.1
	l-0.1-0.7L43,43.1c-0.9-0.6-2.1-2.2-2.3-4.7c-0.2-2.4,0.6-2.9,1.4-3.1l1.2-0.4l-0.2-1.3c-0.7-5.2-1.2-10.2,1-12.8
	c1.1-1.3,2.9-2,5.4-2.1l0.8,0l0.4-0.6c1.4-2.1,4-3.2,6.8-3.2c1.6,0,3.3,0.4,5,1.1c5.1,2.2,9.7,8,7.5,17.7l-0.3,1.4l1.4,0.4
	c0.4,0.1,1.3,0.4,1.1,2.9c-0.2,2.5-1.4,4.1-2.3,4.7l-0.6,0.4l-0.1,0.7C68.1,53,61.7,59,56.5,59S44.8,53,43.7,44.1z M56.5,62
	c2.2,0,4.3-0.7,6.3-1.9v1.6c0,0.4,0.1,0.8,0.2,1.1l-6.5,3.5L50,62.8c0.1-0.4,0.2-0.7,0.2-1.1v-1.6C52.1,61.3,54.3,62,56.5,62z
	 M28,80.1c0-4.3,7.8-9.4,15.8-13.1l2.6,7.2c0.2,0.4,0.5,0.8,1,0.9c0.1,0,0.3,0.1,0.4,0.1c0.3,0,0.6-0.1,0.9-0.3l2.6-1.9l2.6,3.1
	l-2.1,11.6C39.8,86.8,28,83.2,28,80.1z M61.2,87.8L59,76.1l2.6-3.1l2.6,1.9c0.3,0.2,0.6,0.3,0.9,0.3c0.1,0,0.3,0,0.4-0.1
	c0.5-0.1,0.8-0.5,1-0.9l2.6-7.2c7.9,3.7,15.8,8.7,15.8,13.1C84.9,83.2,73.1,86.8,61.2,87.8z"/>
</svg>
