<?xml version="1.0" encoding="utf-8"?>
<!-- Generator: Adobe Illustrator 22.0.0, SVG Export Plug-In . SVG Version: 6.00 Build 0)  -->
<svg version="1.1" id="Layer_1" xmlns="http://www.w3.org/2000/svg" xmlns:xlink="http://www.w3.org/1999/xlink" x="0px" y="0px"
	 viewBox="0 0 108.7 100" style="enable-background:new 0 0 108.7 100;" xml:space="preserve">
<style type="text/css">
	.st0{fill:#FFFFFF;}
</style>
<g>
	<path class="st0" d="M28.5,47h-15c-0.8,0-1.5,0.7-1.5,1.5s0.7,1.5,1.5,1.5h15c0.8,0,1.5-0.7,1.5-1.5S29.3,47,28.5,47z"/>
	<path class="st0" d="M28.5,54h-15c-0.8,0-1.5,0.7-1.5,1.5s0.7,1.5,1.5,1.5h15c0.8,0,1.5-0.7,1.5-1.5S29.3,54,28.5,54z"/>
	<path class="st0" d="M96.5,33H74v-7.5c0-4.1-3.4-7.5-7.5-7.5h-55C7.4,18,4,21.4,4,25.5v34c0,4.1,3.4,7.5,7.5,7.5H34v7.5
		c0,4.1,3.4,7.5,7.5,7.5h55c4.1,0,7.5-3.4,7.5-7.5v-34C104,36.4,100.6,33,96.5,33z M96.5,36c2.5,0,4.5,2,4.5,4.5V45H74v-9H96.5z
		 M71,38H7v-5h64V38z M74,48h27v5H74V48z M11.5,21h55c2.5,0,4.5,2,4.5,4.5V30H7v-4.5C7,23,9,21,11.5,21z M7,59.5V41h64v18.5
		c0,2.5-2,4.5-4.5,4.5h-55C9,64,7,62,7,59.5z M96.5,79h-55C39,79,37,77,37,74.5V67h29.5c4.1,0,7.5-3.4,7.5-7.5V56h27v18.5
		C101,77,99,79,96.5,79z"/>
	<path class="st0" d="M58.5,69h-15c-0.8,0-1.5,0.7-1.5,1.5s0.7,1.5,1.5,1.5h15c0.8,0,1.5-0.7,1.5-1.5S59.3,69,58.5,69z"/>
</g>
</svg>
