<?xml version="1.0" encoding="UTF-8" standalone="no"?>
<!DOCTYPE svg PUBLIC "-//W3C//DTD SVG 1.1//EN" "http://www.w3.org/Graphics/SVG/1.1/DTD/svg11.dtd">
<svg width="100%" height="100%" viewBox="0 0 53 53" version="1.1" xmlns="http://www.w3.org/2000/svg" xmlns:xlink="http://www.w3.org/1999/xlink" xml:space="preserve" xmlns:serif="http://www.serif.com/" style="fill-rule:evenodd;clip-rule:evenodd;stroke-linecap:round;stroke-linejoin:round;stroke-miterlimit:1.5;">
    <g transform="matrix(1,0,0,1,-705,0)">
        <g id="_17" serif:id="17" transform="matrix(0.981132,0,0,0.981132,-177.84,-11.2447)">
            <rect x="900.328" y="12" width="53" height="53" style="fill:none;"/>
            <g transform="matrix(1.01755,0,0,1.01755,1211.27,-357.827)">
                <rect x="-302.965" y="366.063" width="46.857" height="46.857" style="fill:none;"/>
                <g transform="matrix(0.482422,0,0,0.482422,-944.942,93.5507)">
                    <path d="M1395.61,615.349C1395.61,605.25 1387.42,597.063 1377.32,597.063C1387.42,597.063 1395.61,605.25 1395.61,615.349Z" style="fill:none;stroke:white;stroke-width:3.32px;"/>
                </g>
                <g transform="matrix(1.28125,0,0,1.28125,-2046.01,-397.257)">
                    <path d="M1395.61,615.349C1395.61,605.25 1387.42,597.063 1377.32,597.063C1387.42,597.063 1395.61,605.25 1395.61,615.349Z" style="fill:none;stroke:white;stroke-width:1.25px;"/>
                </g>
                <g transform="matrix(0.890625,0,0,0.890625,-1507.7,-157.172)">
                    <path d="M1395.61,615.349C1395.61,605.25 1387.42,597.063 1377.32,597.063C1387.42,597.063 1395.61,605.25 1395.61,615.349Z" style="fill:none;stroke:white;stroke-width:1.8px;"/>
                </g>
                <g transform="matrix(0.755262,0,0,0.755262,-264.258,379.989)">
                    <path d="M0,30.585L-9.421,24.121C-10.757,23.227 -11.975,23.238 -13.074,24.153L-16.677,26.739C-17.216,27.073 -17.787,27.213 -18.39,27.159C-18.713,27.127 -19.306,26.971 -20.168,26.69C-22.279,26.033 -25.107,23.879 -28.652,20.227C-30.171,18.654 -31.507,17.124 -32.66,15.637C-33.845,14.064 -34.637,12.793 -35.035,11.823C-35.326,11.08 -35.488,10.493 -35.52,10.062C-35.563,9.469 -35.417,8.898 -35.083,8.349L-32.482,4.777C-31.577,3.668 -31.561,2.44 -32.434,1.093L-38.914,-8.344C-40.142,-9.712 -41.424,-10.003 -42.76,-9.217L-46.509,-6.955C-48.211,-5.856 -48.917,-3.625 -48.625,-0.264C-48.346,2.741 -47.344,6.129 -45.62,9.9C-43.174,15.266 -39.533,20.383 -34.696,25.252L-33.581,26.367C-28.711,31.205 -23.594,34.852 -18.229,37.308C-14.469,39.021 -11.075,40.017 -8.048,40.297C-4.697,40.588 -2.473,39.888 -1.374,38.197L0.873,34.431C1.67,33.106 1.379,31.824 0,30.585" style="fill:none;stroke:white;stroke-width:2.12px;stroke-linecap:butt;stroke-miterlimit:1.41421;"/>
                </g>
            </g>
        </g>
    </g>
</svg>
