<?xml version="1.0" encoding="UTF-8" standalone="no"?>
<!DOCTYPE svg PUBLIC "-//W3C//DTD SVG 1.1//EN" "http://www.w3.org/Graphics/SVG/1.1/DTD/svg11.dtd">
<svg width="100%" height="100%" viewBox="0 0 52 53" version="1.1" xmlns="http://www.w3.org/2000/svg" xmlns:xlink="http://www.w3.org/1999/xlink" xml:space="preserve" xmlns:serif="http://www.serif.com/" style="fill-rule:evenodd;clip-rule:evenodd;stroke-linecap:round;stroke-linejoin:round;stroke-miterlimit:1.5;">
    <g transform="matrix(1,0,0,1,-1674,-69)">
        <g id="_21" serif:id="21" transform="matrix(0.981095,0,0,0.981132,790.694,57.2406)">
            <rect x="900.328" y="12" width="53" height="53" style="fill:none;"/>
            <g transform="matrix(2.54793,0,0,2.54784,-1307.71,-445.297)">
                <g transform="matrix(0.672877,0,0,0.875297,336.412,-6.41973)">
                    <path d="M811.4,218.036C811.4,217.137 810.451,216.407 809.281,216.407L797.515,216.407C796.345,216.407 795.396,217.137 795.396,218.036L795.396,230.783C795.396,231.682 796.345,232.412 797.515,232.412L809.281,232.412C810.451,232.412 811.4,231.682 811.4,230.783L811.4,218.036Z" style="fill:none;stroke:rgb(255,174,66);stroke-width:0.82px;"/>
                </g>
                <g transform="matrix(0.672977,0,0,0.769231,314.728,17.0714)">
                    <path d="M833,215.982L830.999,221.714L834,221.714L832,228L840,220L837,219.979L838.774,216.176" style="fill:none;stroke:rgb(255,174,66);stroke-width:0.89px;"/>
                </g>
            </g>
        </g>
    </g>
</svg>
