<?xml version="1.0" encoding="UTF-8" standalone="no"?>
<!DOCTYPE svg PUBLIC "-//W3C//DTD SVG 1.1//EN" "http://www.w3.org/Graphics/SVG/1.1/DTD/svg11.dtd">
<svg width="100%" height="100%" viewBox="0 0 53 53" version="1.1" xmlns="http://www.w3.org/2000/svg" xmlns:xlink="http://www.w3.org/1999/xlink" xml:space="preserve" xmlns:serif="http://www.serif.com/" style="fill-rule:evenodd;clip-rule:evenodd;stroke-linecap:round;stroke-linejoin:round;stroke-miterlimit:1.5;">
    <g transform="matrix(1,0,0,1,-297,0)">
        <g id="_23" serif:id="23" transform="matrix(0.981132,0,0,0.981132,-585.84,-11.2447)">
            <rect x="900.328" y="12" width="53" height="53" style="fill:none;"/>
            <g transform="matrix(0.665132,0,0,0.606365,-1406.36,-908.599)">
                <g transform="matrix(0.942857,0,0,1.09692,-1296.18,279.286)">
                    <path d="M5074,1189.94C5074,1192.18 5075.93,1194 5078.3,1194L5104.7,1194C5107.07,1194 5109,1192.18 5109,1189.94L5109,1174.04" style="fill:none;stroke:white;stroke-width:2.33px;"/>
                </g>
                <g transform="matrix(0.942857,0,0,1.09692,-1296.18,279.286)">
                    <path d="M5109,1152.93L5109,1141.06C5109,1138.82 5107.07,1137 5104.7,1137L5078.3,1137C5075.93,1137 5074,1138.82 5074,1141.06" style="fill:none;stroke:white;stroke-width:2.33px;"/>
                </g>
                <g transform="matrix(1,0,0,1.09692,-1585.12,229.925)">
                    <path d="M5118,1246C5119.01,1244.62 5120.05,1237.94 5120.13,1230.9C5120.24,1220.75 5117.9,1218.56 5115,1215C5112.1,1211.44 5110.28,1207.48 5110,1202C5109.77,1197.5 5106,1198 5106,1198C5106,1198 5101.52,1198.28 5102,1206C5102.35,1211.55 5105.91,1214.93 5106,1219" style="fill:none;stroke:white;stroke-width:2.26px;"/>
                </g>
                <g transform="matrix(1,0,0,1.09692,-1585,230.609)">
                    <path d="M5075.8,1197.59C5075.8,1195.41 5074.03,1193.64 5071.85,1193.64L5069.64,1193.64C5067.46,1193.64 5065.69,1195.41 5065.69,1197.59L5065.69,1198.64C5065.69,1200.82 5067.46,1202.59 5069.64,1202.59L5071.85,1202.59C5074.03,1202.59 5075.8,1200.82 5075.8,1198.64L5075.8,1197.59Z" style="fill:none;stroke:white;stroke-width:2.26px;"/>
                </g>
                <g transform="matrix(1,0,0,1.09692,-1584.91,243.653)">
                    <path d="M5075.8,1197.59C5075.8,1195.41 5074.03,1193.64 5071.85,1193.64L5069.64,1193.64C5067.46,1193.64 5065.69,1195.41 5065.69,1197.59L5065.69,1198.64C5065.69,1200.82 5067.46,1202.59 5069.64,1202.59L5071.85,1202.59C5074.03,1202.59 5075.8,1200.82 5075.8,1198.64L5075.8,1197.59Z" style="fill:none;stroke:white;stroke-width:2.26px;"/>
                </g>
                <g transform="matrix(0.981571,0,0,1.02428,-1490.97,340.353)">
                    <path d="M5075.8,1197.59C5075.8,1195.41 5074.11,1193.64 5072.04,1193.64L5069.44,1193.64C5067.37,1193.64 5065.69,1195.41 5065.69,1197.59L5065.69,1198.64C5065.69,1200.82 5067.37,1202.59 5069.44,1202.59L5072.04,1202.59C5074.11,1202.59 5075.8,1200.82 5075.8,1198.64L5075.8,1197.59Z" style="fill:none;stroke:white;stroke-width:2.36px;"/>
                </g>
                <g transform="matrix(0.858472,0,0,0.869664,-866.416,534.315)">
                    <path d="M5075.8,1197.59C5075.8,1195.41 5074.16,1193.64 5072.15,1193.64L5069.33,1193.64C5067.32,1193.64 5065.69,1195.41 5065.69,1197.59L5065.69,1198.64C5065.69,1200.82 5067.32,1202.59 5069.33,1202.59L5072.15,1202.59C5074.16,1202.59 5075.8,1200.82 5075.8,1198.64L5075.8,1197.59Z" style="fill:none;stroke:white;stroke-width:2.74px;"/>
                </g>
                <g transform="matrix(1,0,0,1.09692,-1585.12,229.925)">
                    <path d="M5073.02,1186.16L5073.03,1194.18" style="fill:none;stroke:white;stroke-width:2.26px;"/>
                </g>
                <g transform="matrix(1,0,0,1.09692,-1585.12,229.925)">
                    <path d="M5073,1234.9L5072.96,1231.24" style="fill:none;stroke:white;stroke-width:2.26px;"/>
                </g>
                <g transform="matrix(1,0,0,1.09692,-1585.12,229.925)">
                    <path d="M5072.81,1203.33L5072.81,1206.19" style="fill:none;stroke:white;stroke-width:2.26px;"/>
                </g>
                <g transform="matrix(1,0,0,1.09692,-1585.12,229.925)">
                    <path d="M5085.4,1189.27L5093.38,1189.27" style="fill:none;stroke:white;stroke-width:2.26px;"/>
                </g>
                <g transform="matrix(1,0,0,1.09692,-1585.12,229.925)">
                    <path d="M5081.53,1239.05C5081.53,1239.05 5083.99,1244.26 5090.19,1246.63" style="fill:none;stroke:white;stroke-width:2.26px;"/>
                </g>
            </g>
        </g>
    </g>
</svg>
