<?xml version="1.0" encoding="UTF-8" standalone="no"?>
<!DOCTYPE svg PUBLIC "-//W3C//DTD SVG 1.1//EN" "http://www.w3.org/Graphics/SVG/1.1/DTD/svg11.dtd">
<svg width="100%" height="100%" viewBox="0 0 52 53" version="1.1" xmlns="http://www.w3.org/2000/svg" xmlns:xlink="http://www.w3.org/1999/xlink" xml:space="preserve" xmlns:serif="http://www.serif.com/" style="fill-rule:evenodd;clip-rule:evenodd;stroke-linejoin:round;stroke-miterlimit:1.41421;">
    <g transform="matrix(1,0,0,1,-637,-69)">
        <g id="_6" serif:id="6" transform="matrix(0.981132,0,0,0.981132,-246.34,57.3187)">
            <rect x="900.328" y="12" width="53" height="53" style="fill:none;"/>
            <g transform="matrix(-0.936653,0,0,0.990098,930.868,25.4379)">
                <path d="M0,26.056L0,18.437C0.579,18.352 3.14,17.905 6.107,17.965C21.256,18.273 24.85,30.18 24.85,30.18C24.85,30.18 26.919,14.855 16.814,8.54C13.587,6.523 9.242,4.564 0,4.927L-0.017,-2.809C-0.019,-3.686 -1.08,-4.124 -1.7,-3.504L-16.108,10.908C-16.493,11.292 -16.493,11.916 -16.108,12.301L-1.684,26.752C-1.063,27.374 0,26.934 0,26.056" style="fill:none;stroke:rgb(113,200,237);stroke-width:1.69px;"/>
            </g>
        </g>
    </g>
</svg>
