<?xml version="1.0" encoding="UTF-8" standalone="no"?>
<!DOCTYPE svg PUBLIC "-//W3C//DTD SVG 1.1//EN" "http://www.w3.org/Graphics/SVG/1.1/DTD/svg11.dtd">
<svg width="100%" height="100%" viewBox="0 0 52 53" version="1.1" xmlns="http://www.w3.org/2000/svg" xmlns:xlink="http://www.w3.org/1999/xlink" xml:space="preserve" xmlns:serif="http://www.serif.com/" style="fill-rule:evenodd;clip-rule:evenodd;stroke-linecap:round;stroke-linejoin:round;">
    <g transform="matrix(1,0,0,1,-1211,-69)">
        <g id="_16" serif:id="16" transform="matrix(0.981132,0,0,0.981132,327.66,57.3187)">
            <rect x="900.328" y="12" width="53" height="53" style="fill:none;"/>
            <g transform="matrix(0.59449,0,0,2.26403,834.785,-202.797)">
                <g transform="matrix(0.8003,0,0,0.202068,-170.819,78.283)">
                    <g>
                        <path id="Layer0_0_1_STROKES" d="M419.43,154.944L419.43,146.7C423.563,143.6 425.78,139.217 426.08,133.55C426.746,133.05 427.23,132.267 427.53,131.2C427.83,130.2 428.063,128.667 428.23,126.6C428.396,124.5 428.28,122.967 427.88,122C427.546,121.133 426.93,120.633 426.03,120.5C426.83,113.033 425.796,107.25 422.93,103.15C419.863,98.817 414.472,96.65 407.638,96.65C400.438,96.65 395.713,98.7 392.58,102.8C389.58,106.767 388.43,112.667 389.13,120.5C388.23,120.633 387.613,121.133 387.28,122C386.88,122.967 386.763,124.5 386.93,126.6C387.096,128.667 387.33,130.2 387.63,131.2C387.93,132.267 388.413,133.05 389.08,133.55C389.38,139.317 391.53,143.7 395.53,146.7L395.53,154.944C395.518,158.047 386.596,161.483 381.83,162.65C377.196,164.017 373.88,166.45 371.88,169.95C370.446,172.45 369.68,175.5 369.58,179.1L413.142,179.1" style="fill:none;stroke:rgb(99,159,235);stroke-width:3.31px;"/>
                    </g>
                </g>
                <g transform="matrix(0.764869,0,0,0.200839,135.746,102.967)">
                    <circle cx="50" cy="50" r="14" style="fill:rgb(64,251,64);stroke:rgb(99,159,235);stroke-width:3.4px;stroke-miterlimit:1.5;"/>
                </g>
            </g>
        </g>
    </g>
</svg>
