<?xml version="1.0" encoding="UTF-8" standalone="no"?>
<!DOCTYPE svg PUBLIC "-//W3C//DTD SVG 1.1//EN" "http://www.w3.org/Graphics/SVG/1.1/DTD/svg11.dtd">
<svg width="100%" height="100%" viewBox="0 0 52 53" version="1.1" xmlns="http://www.w3.org/2000/svg" xmlns:xlink="http://www.w3.org/1999/xlink" xml:space="preserve" xmlns:serif="http://www.serif.com/" style="fill-rule:evenodd;clip-rule:evenodd;stroke-linecap:round;stroke-linejoin:round;stroke-miterlimit:1.5;">
    <g transform="matrix(1,0,0,1,-1470,-69)">
        <g id="_18" serif:id="18" transform="matrix(0.981095,0,0,0.981132,586.695,57.2406)">
            <rect x="900.328" y="12" width="53" height="53" style="fill:none;"/>
            <g transform="matrix(2.34031,0,0,2.34023,-1125.69,-404.509)">
                <g transform="matrix(0.429279,0,0,0.429279,497.54,97.4739)">
                    <path d="M874.751,199C874.045,199 873.434,199.493 873.284,200.183C872.311,204.669 868.86,220.573 868.024,224.426C867.979,224.632 868.03,224.847 868.162,225.012C868.295,225.176 868.494,225.271 868.705,225.271C870.256,225.271 873.49,225.271 875.013,225.271C875.496,225.271 875.914,224.935 876.018,224.463C876.372,222.85 877.167,219.23 877.559,217.444C877.691,216.838 878.228,216.407 878.848,216.407C880.372,216.407 883,216.407 883,216.407C883,216.407 891.771,216.813 893.225,208C894.825,198.305 886,199 886,199C886,199 877.881,199 874.751,199Z" style="fill:none;stroke:rgb(82,200,126);stroke-width:1.62px;"/>
                </g>
                <g transform="matrix(0.429279,0,0,0.429279,500.372,100.354)">
                    <path d="M869.561,217.145C868.957,219.929 868.281,223.24 868.024,224.426C867.979,224.632 868.03,224.847 868.162,225.012C868.295,225.176 868.494,225.271 868.705,225.271C870.256,225.271 873.49,225.271 875.013,225.271C875.496,225.271 875.914,224.935 876.018,224.463C876.372,222.85 877.167,219.23 877.559,217.444C877.691,216.838 878.228,216.407 878.848,216.407C880.372,216.407 883,216.407 883,216.407C883,216.407 891.771,216.813 893.225,208C894.557,199.926 888.835,199.058 886.826,198.994" style="fill:none;stroke:rgb(82,200,126);stroke-width:1.62px;"/>
                </g>
            </g>
        </g>
    </g>
</svg>
