<?xml version="1.0" encoding="utf-8"?>
<!-- Generator: Adobe Illustrator 22.0.0, SVG Export Plug-In . SVG Version: 6.00 Build 0)  -->
<svg version="1.1" id="Layer_1" xmlns="http://www.w3.org/2000/svg" xmlns:xlink="http://www.w3.org/1999/xlink" x="0px" y="0px"
	 viewBox="0 0 108.7 100" style="enable-background:new 0 0 108.7 100;" xml:space="preserve">
<style type="text/css">
	.st0{fill:#FFFFFF;}
</style>
<g>
	<path class="st0" d="M77.5,46C67,46,58.2,53.6,56.4,63.7c-0.8-0.4-1.6-0.7-2.1-0.9c-0.4-0.2-0.7-0.5-0.7-1v-3.9
		c3.2-3.1,5.6-7.6,6.4-12.6c1.7-1.4,2.8-3.8,3.1-6.6c0.3-3.1-0.8-4.7-2-5.4c2-10.7-3.5-17.3-9.3-19.9c-5.7-2.5-11.9-1.5-15.2,2.5
		c-3,0.2-5.3,1.3-6.9,3.1c-3,3.6-2.5,9.4-1.9,14.1c-1.4,0.8-2.6,2.5-2.3,5.7c0.2,2.8,1.4,5.2,3.1,6.6c0.8,4.9,3.2,9.3,6.4,12.4v4.2
		c0,0.4-0.3,0.8-0.7,1c-8,3.2-21.5,9.8-21.5,17.5c0,7.6,20.8,10.3,30.8,10.6v0c0.3,0,0.6,0,1,0c0.4,0,0.7,0,1,0v0
		c6.7-0.2,16.2-1.5,22.6-3.7l-0.2-0.5c2.9,1.5,6.2,2.3,9.6,2.3C89.4,89,99,79.4,99,67.5S89.4,46,77.5,46z M31.4,44.2l-0.1-0.7
		l-0.6-0.4c-0.9-0.6-2.1-2.2-2.3-4.7c-0.2-2.4,0.6-2.9,1.4-3.1l1.2-0.4l-0.2-1.3c-0.7-5.3-1.2-10.2,1-12.8c1.1-1.3,2.9-2,5.4-2.1
		l0.8,0l0.4-0.6c1.5-2.1,4.1-3.2,6.9-3.2c1.6,0,3.4,0.4,5.1,1.1c5,2.2,9.6,8.1,7.4,17.7l-0.3,1.4l1.4,0.4c0.4,0.1,1.3,0.4,1.1,2.9
		c-0.2,2.5-1.4,4.1-2.3,4.7l-0.6,0.4l-0.1,0.7C56,53.1,49.6,59,44.5,59C39.3,59,32.6,52.9,31.4,44.2z M44.3,88
		c-13.6-0.2-28.6-4.2-28.6-7.7c0-5.1,10.6-11.1,19.7-14.8c1.5-0.6,2.5-2.1,2.5-3.8V60c2.1,1.3,4.3,2,6.6,2c2.1,0,4.2-0.7,6.1-1.8
		v1.6c0,1.7,1,3.1,2.5,3.8c0.7,0.3,1.7,0.7,2.9,1.2c0,0.2,0,0.5,0,0.7c0,7.2,3.6,13.6,9.1,17.5C59.4,86.7,51,87.9,44.3,88z M77.5,86
		C67.3,86,59,77.7,59,67.5S67.3,49,77.5,49S96,57.3,96,67.5S87.7,86,77.5,86z"/>
	<path class="st0" d="M88.5,66H79v-9.5c0-0.8-0.7-1.5-1.5-1.5S76,55.7,76,56.5V66h-9.5c-0.8,0-1.5,0.7-1.5,1.5s0.7,1.5,1.5,1.5H76
		v9.5c0,0.8,0.7,1.5,1.5,1.5s1.5-0.7,1.5-1.5V69h9.5c0.8,0,1.5-0.7,1.5-1.5S89.3,66,88.5,66z"/>
</g>
</svg>
