<?xml version="1.0" encoding="UTF-8" standalone="no"?>
<!DOCTYPE svg PUBLIC "-//W3C//DTD SVG 1.1//EN" "http://www.w3.org/Graphics/SVG/1.1/DTD/svg11.dtd">
<svg width="100%" height="100%" viewBox="0 0 52 53" version="1.1" xmlns="http://www.w3.org/2000/svg" xmlns:xlink="http://www.w3.org/1999/xlink" xml:space="preserve" xmlns:serif="http://www.serif.com/" style="fill-rule:evenodd;clip-rule:evenodd;stroke-linecap:round;stroke-linejoin:round;stroke-miterlimit:1.5;">
    <g transform="matrix(1,0,0,1,-754,-69)">
        <g id="_8" serif:id="8" transform="matrix(0.981132,0,0,0.981132,-129.34,57.3187)">
            <rect x="900.328" y="12" width="53" height="53" style="fill:none;"/>
            <g transform="matrix(0.690041,0,0,2.62792,532.908,-591.18)">
                <g transform="matrix(1.06195,0,0,0.278846,0,0)">
                    <path d="M557.572,862.784L557.572,858.361C557.572,855.669 555.386,853.483 552.694,853.483L518.306,853.483C515.614,853.483 513.429,855.669 513.429,858.361L513.429,880.749C513.429,883.441 515.614,885.626 518.306,885.626L552.694,885.626C555.386,885.626 557.572,883.441 557.572,880.749L557.572,873.581" style="fill:none;stroke:rgb(84,210,136);stroke-width:2.09px;"/>
                </g>
                <g transform="matrix(0.997304,-0.0958025,0.36485,0.261872,-276.166,66.2971)">
                    <path d="M554.954,861.483L559.857,861.483L559.857,844.055L522,844.055L522.032,846.587" style="fill:none;stroke:rgb(84,210,136);stroke-width:2.09px;"/>
                </g>
                <g transform="matrix(0.959877,-0.119284,0.454276,0.252045,-340.548,86.3115)">
                    <path d="M559.668,851.677L559.857,844.055L525.092,844.943L524.879,850.001" style="fill:none;stroke:rgb(84,210,136);stroke-width:2.09px;"/>
                </g>
                <g transform="matrix(1.19152,0,0,0.328471,-74.6091,-43.8567)">
                    <path d="M561.857,866.341L550.71,866.341C548.268,866.341 546.286,868.229 546.286,870.555C546.286,872.881 548.268,874.769 550.71,874.769L561.857,874.769L561.857,866.341Z" style="fill:none;stroke:rgb(84,210,136);stroke-width:1.81px;"/>
                </g>
            </g>
        </g>
    </g>
</svg>
